<?xml version="1.0" encoding="UTF-8"?>
<svg id="Layer_1" xmlns="http://www.w3.org/2000/svg" version="1.1" viewBox="0 0 299.2 261.7">
  <!-- Generator: Adobe Illustrator 29.5.1, SVG Export Plug-In . SVG Version: 2.1.0 Build 141)  -->
  <defs>
    <style>
      .st0 {
        fill: #2a324c;
      }

      .st1 {
        fill: #707e91;
      }

      .st2 {
        fill: #4a6489;
      }
    </style>
  </defs>
  <path class="st1" d="M298.4,28.5c1.4-.7.3-1.5.4-1.8-2.2,1.5-.2,2.1-.4,1.8Z"/>
  <polygon class="st1" points="277 44 277.1 43.3 274.4 46.3 277 44"/>
  <path class="st1" d="M255.8,56.4c3.1.7,7.5-4.8,11.6-6.4h.9l.8-2.4c-4.5,3-9.8,7.4-13.4,8.8h.1Z"/>
  <path class="st1" d="M242.1,59.2c1.1.3-2.1,2.1,2.8-1.4-.3,0-.4,0-.6,0-.4.3-1.1.7-2.2,1.3h0Z"/>
  <path class="st1" d="M244.3,57.9c2.2-1.4-1.8.3,0,0h0Z"/>
  <path class="st1" d="M234.3,64.6l2.5-2.4c-.9,0-3.5,1.5-2.7.6-2.8,2.2-1.9,2.2.2,1.9h0Z"/>
  <path class="st1" d="M232.4,67.6l1.3-1.2c-.4,0-.8.2-1.3,1.2Z"/>
  <path class="st1" d="M236.6,63.8l-2.8,2.5c.6,0,1,.6,1.3-1.1,0,.7.4-.2,1.5-1.4Z"/>
  <path class="st1" d="M238.5,63c1.9-.6,4.1-1.6,1.6.8,5.4-3.6,3.8-4.4-1.6-.8Z"/>
  <path class="st1" d="M255.8,58.9l2.5-.8,1.5-1.7c-.8.9-4.5,2-4.1,2.5h.1Z"/>
  <path class="st1" d="M215.6,74.9c0,.5,1.6.4,2.1.8l1.9-1.8c-1.3.4-3.5,1.5-4,1Z"/>
  <path class="st1" d="M217.8,75.7l-2.8,2.7c2.9-1.7,3.2-2.4,2.8-2.7Z"/>
  <polygon class="st1" points="233.1 69.9 237.5 65.3 232.1 70.6 233.1 69.9"/>
  <polygon class="st1" points="203.4 82.6 204.7 80.5 202.3 83.9 203.4 82.6"/>
  <path class="st1" d="M195.5,87.9c.9-1.6-2.6,0-1.5-1.4-2.1,1.6-3.6,3.4-4.9,5.1,1.6-1.5,3.5-2.6,6.4-3.6h0Z"/>
  <path class="st1" d="M186.9,94.2c.8-.8,1.5-1.7,2.3-2.7-.8.8-1.6,1.7-2.3,2.7Z"/>
  <path class="st1" d="M209.5,81.6c-.4,0-1.3-.4-3.2.5l1.9.3c.4-.2.8-.5,1.3-.8Z"/>
  <path class="st1" d="M208.3,82.4h0c-1.4.8-2.3,1.4-2.7,1.7.4-.2,1.2-.7,2.8-1.7h-.1Z"/>
  <path class="st1" d="M209.8,81.4c-.1,0-.2,0-.3.2.2,0,.3,0,.3-.2Z"/>
  <path class="st1" d="M224.1,74.2c-1.5,1.8-5,4.9-.6,3.4.9-1.6-1.6-.8.6-3.4Z"/>
  <path class="st1" d="M212.2,81.7l3.5-1.9c-.2-.2-1.1-.3-.4-1.2l-3.1,3.1Z"/>
  <polygon class="st1" points="210.8 83.1 212.2 81.7 210.9 82.4 210.8 83.1"/>
  <path class="st1" d="M193.3,91.5c-1.1,1.4-2.7,2.5-4.4,3.8,2.1-1.1,4.1-2.2,6-3.5,0-.5.5-1.7-1.6-.3h0Z"/>
  <path class="st1" d="M200.6,87.1l-.3.3c.3,0,.4,0,.3-.3Z"/>
  <path class="st1" d="M171.3,106.9h.4v-.2l-.4.2h0Z"/>
  <path class="st1" d="M195.3,91.7c1.6-.7,2.3-1.6,2.9-2.4-1,.8-2.1,1.6-3.3,2.4,0,.2,0,.3.4,0h0Z"/>
  <path class="st1" d="M182.3,98c.9-.3,1.9-.7,2.9-1.1-1,.2-2.8.6-2.9,1.1Z"/>
  <path class="st1" d="M199.7,87.4s.1,0,.2-.2c-.6,0-.5.2-.2.2Z"/>
  <path class="st1" d="M199.7,87.4c-.6.6-1.1,1.3-1.5,1.9.8-.7,1.6-1.3,2.2-1.9h-.7Z"/>
  <path class="st1" d="M170.7,117.3c-.4-1.2,2.7-4.6,6.6-5.7,2.7-2.9-1.6-4.7-5.6-4.7.2.5.5.9-2.4,3.7,1.5-.2,8.1-3.7,5.9-.9-4,3.4-3.8,2.1-6.2,3,2.6,0-4.3,5.5-2.1,6.7l3.4-3.2c.3.2-.8,1.6.4,1.2h0Z"/>
  <path class="st1" d="M178.1,102.8l1.3-1c-1.7.8-3,1.2-5.6,1.8-1.9,2-2.1,2.7-2.1,3.1l6.8-4.3-.4.5h0Z"/>
  <path class="st1" d="M185.4,97.7c-.4,1.8-3.3,4.4-.5,4.2,3.9-2.7,2.2-2.8,4.3-4.8-6.2,4.5,1.4-1.8-3.6.6,1.1-1,2.2-1.8,3.3-2.6-1.2.6-2.5,1.2-3.6,1.7h.2c.4,0,.5,0,.1,0h-.1v.7c-2,1-.5,0,0-.6v-.2h0l-6.1,4.9c1.5-.8,3.1-1.9,6.1-4h0Z"/>
  <path class="st1" d="M221.5,82.2q-.3,0-.4,0c-.3.4-.4.6.4,0Z"/>
  <path class="st1" d="M218.4,83.2c.4-.4.5-1.1,2.1-2,1.5-.5.3.5.6.8.7-.9,2.8-2.8-.5-1.5l-.4.4c-2.9,1.3-7.1,2.1-6.7,1.6,1.4.5,2.5.8,4.9.6h0Z"/>
  <path class="st1" d="M201.9,90.7l-5.1,4,3.4-.8-.5-.5c3.2-1.8,2.1-2,2.2-2.7h0Z"/>
  <polygon class="st1" points="170.4 106.8 170.3 105.2 168.3 108.8 170.4 106.8"/>
  <polygon class="st1" points="163.5 111.6 163.1 110.4 161.7 112.3 163.5 111.6"/>
  <path class="st1" d="M242.5,142.1l1.2-1.4c-.6.6-.9,1.1-1.2,1.4Z"/>
  <path class="st1" d="M232,150.2v.7c.4-.6.4-1,0-.7Z"/>
  <path class="st1" d="M1.3,247.9c0,1.9.4,3.9.9,5.2.5,1.3,1,2,1.5,1.5,0-.5.3-1,.4-1.5-1.8-1.7-2.5-3.6-2.8-5.2Z"/>
  <path class="st1" d="M138.8,210h-.9c-.4.7-.8,1.3-1.2,1.9.6-.6,1.3-1.2,2.1-1.9h0Z"/>
  <path class="st1" d="M138.4,204.3l3.6-.7c-.9,0-2,.3-3.6.7Z"/>
  <path class="st1" d="M263.2,102.8l-2.1.8c2.6.8,1.7-.2,2.1-.8Z"/>
  <path class="st1" d="M94.2,162c-2.2,1-3.8,2-5.2,2.9,2.7-1.1,5.3-1.6,5.2-2.9Z"/>
  <path class="st1" d="M247,156.1c.8-.9,1-1.4.8-1.6-.8.9-1.2,1.6-.8,1.6Z"/>
  <path class="st1" d="M83.5,169.1c.4-.1.8-.4,1.2-.5,1.2-1.2,2.5-2.4,4.3-3.6-2,.8-4.2,2-5.5,4.2h0Z"/>
  <path class="st1" d="M162.7,119.8c-.2-.2-.4-.3-.5-.4-.1,0,.1.3.5.4Z"/>
  <path class="st1" d="M110,138.1c-.2-.8-.2-2.2-.2-3.5,0,.6,0,1.7.2,3.5Z"/>
  <path class="st1" d="M135.6,130.4c1.4-1.1.1-.3,0,0h0Z"/>
  <path class="st1" d="M145.6,129.6c-.2.3-.4.6-.2.9,0-.3,0-.6.2-.9Z"/>
  <path class="st1" d="M74.5,186.3h0c.6,0,.5,0,0,0Z"/>
  <path class="st1" d="M138.1,129.3c-.6.2-1.3.6-2.1,1,.4-.1,1-.4,2.1-1Z"/>
  <path class="st1" d="M137.4,129c.5-.3.9-.6,1.3-.8,0-.3-.2-.3-1.3.8Z"/>
  <path class="st1" d="M133.6,131.9c.8-.6,1.6-1.1,2.4-1.6-.3.1-.5.1-.4,0-.4.3-1,.8-2,1.5h0Z"/>
  <path class="st1" d="M148.5,77.7c.1,0,.2,0,.4,0,1.2-1.5.6-1-.4,0Z"/>
  <path class="st1" d="M49.2,237.5s0,0-.2.1h.3,0Z"/>
  <path class="st1" d="M55,234.8c-2.1,2.3-3.6,2.6-5.7,2.7l3,3.1,2.6-5.8h.1Z"/>
  <path class="st1" d="M264.8,120.4c-1.1.8-2.2,1.5-3.4,2.2.9-2.4,1.8-4.1,2.1-5,.3-.9,0-1-1.6,0,1.5,1.4-.7,4.4-3.4,7.2-2.6,2.9-5.8,5.8-4.7,7.5l-2.7,1.3c.6-.5.6-.8,1.2-1.3-2.7,1.1-3,2.4-3.3,3.9s-.7,3.2-3.7,5.4c-2.1,1.4-3.8,2.1-2.8.6-1.2,1.5-2.5,2.9-3.7,4.3-1.3.9-1.4.1-.1-.8-2.2,1.9-4.3,3.7-6.6,5.5h0c-.6,1.1-2.2,3.5-3.1,4.7-2.1.8.6-1-.1-1.1-1.1,1.2-2.2,2.4-3.3,3.6-1.1.1-1-.6-.3-1.6.4-.5.9-1,1.5-1.6s1.2-1.1,1.9-1.6c-3-.3-3.6.4-4.7,1.8-1.1,1.3-2.5,3.2-7.1,4.9,1.2-.9,2.3-2,3.4-2.9-3.6-.2-6.1,2.3-11,3.9,1.4,0,10.4-2.5,6.7,1.2-1.4.5-3.1,1.5-4.9,3.7-.8-1.2-2.9.5-5.8,2.4l-.8-1.8c-2.8,2.4-2.1,3.1-3.5,4.9-3.6,1.9-5.1,1.1-6.6.4-5.8,3,5.1-.2-1.4,4-2.6,1-4.6,2.1-6.6,3.6-2,1.4-4.1,3-6.7,5.1-3.7,1.2,0-1.4-1.4-1.2-.8,1-1.5,1.9-2.3,2.9-.8.3-.7-.2-.7-.5-2.3,1.8.7,1.8-3.1,4.3,0,1.2-2.5,1.6-5.4,2.2-2.9.6-6.3,1.5-8.3,3.7-1.5,0,.1-1.4-.6-1.8-6.3,4.7-5.5,3.8-10.3,8.4l-5.4,1.1c4.2-.3.3,3.3-3.2,6.4,1.6,0,2.9.1,3.8,0l-6.1,3.8c-.9,0-.5-.8.2-2-.4.3-.7.7-1,.9-2.6.4-1.8-1.2-.6-2.9h2.8c1.1-1.8,2.1-3.6,1.3-4.5-.3.4-1.1.9-1.9,1.4.3-.5.4-.9.2-.9-.3,0-.8.6-1.7,1.5l-2.3-1.3v.9l-9.1,2.4c-5.2,4.6-9.3,9.8-18.8,14.5,1.8-2.4-.4-2.6-1-4.4,3.4.8,7.2-3.8,12.4-5.6-2.7.9-2.5-.1-1.9-.7l-8.3,5.4c-.4-1.5-2.3-.3-4.9,0,1.4,1,0,2.2-2.3,3.3s-5.3,2.3-7,3.4c-.6-.9,0-2.1,4.5-3.7-5.7-.2-5.1,5.8-10.7,5.8,1.1-.4,1.7-.5,2-1.2-2.2,1.8-8.8,3.4-7.6,2.1l1.1-.4c-3.7,1.2-9.3,3.1-14,5-4.7,1.9-8.6,3.9-8.8,5.2-.2-.3,0-3.2.4-3.9-3.6,4.1-7.2,8.1-11,12.1.6-2.4-5.2-6.2.6-9.1-1.9.2-4.1.5-7.7,2.1,1.3,0,3.8,2.3,2.2,2.9-2.6-.6-3.5-.7-4.5-.8h-1.8c-.4,0-.8,0-1.4-.1h-1.4q-.2,0-.3-.1c.2,0,.6.3.7.7,0,.4,0,.9,0,1.4-.2,1-1.2,2.1-2.4,2.3.2-.3.2-1.2.3-2.1,0-.9.2-1.7.4-2-1.1,1.3-2.8,2.7-5.2,4.2l-.7.4c.3-.2.6-.4.8-.6.4-.5.7-1,.8-1.6.2-.8.3-1.6.3-2.1,0,.4-.8.5-1.7.6-.9,0-1.8.2-2.5.4.1.4.3.6.6.8-1,0-2.1.4-3.6.8-1.5.4-3.2.8-4.9,1.1-1.8.2-3.6.3-5.1-.3-.4-.1-.7-.3-1-.6-.2-.1-.3-.2-.5-.4,0-.1,0-.2.1-.3.2-.5.7-1.1,1.4-1.8.4.2,2.1-.1,4.3-.8s4.4-1.7,5.6-2.6c-1.2,0-4.2,0-5.3-1.9-.3-.4-.4-1-.5-1.6,0-.6,0-1.4.3-2.2.4-1.6,1.4-3.6,2.9-5.6.8-.3,1.5-.5,2.2-.8l1.1-1.5.3-.4.2-.3.4-.6,1.7-2.4c-.2,1.1-.6,2.6-1.1,4.3-.6,1.8-1.2,3.8-1.4,5.4s-.1,2.9.2,3.9c.3.9.8,1.5,1.2,1.9,1.2-.6,1.6-.7,2-.9.4-.1.7-.3,1.3-1,.8-.2,1,.1,1.1.4v.7c1-.8,1.9-1.4,2.7-1.9-.4-.3-.7-.6-.7-.9v-.3c0-.1,0-.2.1-.4.3-.4.5-.9.9-1.3,1.2-1.8,2.4-3.5,1.7-4-.6.8-1.2,1.6-1.8,2.4l-.9,1.2-.4.6c-.1.2-.3.4-.4.5-.4.9-.7,1.6-.8,2.3-1.2-.3-2.2-1.2-1.8-3.2,0-.2.1-.5.2-.8s.2-.5.4-.9c.4-.7.9-1.5,1.4-2.2,1-1.5,2.4-2.9,3.9-4.1,2-.8,1.3,3.6,1.9,4,.2-1.2,4.5-5.9,5.4-6-.6,1-1.2,2-1.7,3,3.7-2.3,3.5-6.7,8.7-8.6,1.5-1.1,5.8-1.4,5.2-2.6-3.7,0-8.8-5-8.3-7.6.6-.3,8.8-4.4,11.1-4.8,3.5-.5-.8,6.1,2.2,5.8-.3-.5.6-2.1,1-2.7,1.8-.8.5,1.8,3.5-.9-.8-2,6.7-5.1.4-2.6,2.8-3,3.6-2.3,7.3-5.3-2-.1.6-6.2,3.4-9.1,0,.6,1.3.5,1.8.5,6.6-5,10.8-6.9,16.9-11.6.9,0,4.2-1.8,3.5-.2.7-1,1.1-2.1,2.9-3.6,4.8-1.4-4.1,3.4,0,3-.5-1.1,3.9-5,6.2-7.6-1.9-.8-6.5,4.4-8.7,7.1-1.5-2,1.6-7.7,7.4-13.5,4.8-4.4,3.2-.4,3.9-1.3,10-6.8,5.7-9.7,14.8-14.1,4.2-1,2,2.5,3.4,2.9-3.9,3.5-7.1,3.9-9.9,6.1l4-2c-1,1.4-3.6,3.8-5.4,4.6,1.8-.4,5.9-3.4,10.7-6.8,4.8-3.4,10.1-7.2,14.3-9.4,1-1.4,3-3.5,1.6-3.2l-2.3,1.9c-3,.5,3.5-4.7,0-3,2.7-3,5.5-6.8,10.5-9.4l1.9.9c-.4-.4-3.6,1.2-4.6,2.6,1.4-2,8.4-2.9,9.1-6.3l-3.9,1.2c2.7-3,5.7-7.4,10.1-9.8-2.9-.2-.8.8-4.9,1.1,4,.4-10.5,7.1-4.9,6.6-4.4,0-5.7,2.7-10.8,3.7.5.4,2,0-1.5,2.1,0,.2-.3.7-.4,1-.1,0-.2,0-.3.1h.2c0,.2-.1.2,0,0,1-.4,1.8-.6,2.3-.5-.9,2.3-6.3,6.1-7.7,8-2.2,1.2.4-1.2-1-.9l-2.1,2.8c-1.1-.9-6.6,2-2.4-2l-4.3,3c-2.9,1.2-6.6,3.4-8.3,5.4-2.2,1.2-4.1,4.9-3,2.8l-6.1,5.5-.3-.2c-3.3,2.3-6.3,5.3-9.6,8.1-3.3,2.8-6.8,5.4-11.2,7.3-1.9,1.9-3.9,4-7.8,6.4l-1.4-.4c-2.5,2.4-9,5.5-9.4,7.4-2.5,0-5.9,2.4-9.4,5.3-3.5,2.9-7,6.4-9.5,8.1l.8,1.3c-3.3,2.6-6.2,5.6-9.9,9.5l1.1.8c-2.8,3.8-9.5,6.9-14.8,12,0-.7,1.5-1.9,2.6-2.5-2.1.9-3.9,2.2-5.5,3.8-.4.4-.8.8-1.2,1.2l-.6.7-.9,1c-1.2,1.4-2.3,2.7-3.4,4s-2.1,2.6-3,3.8-2,2.4-2.9,3.6c-.9,1.1-1.9,2.3-3,3.4l-.8.8c-.3.3-.4.5-.6.8-.3.5-.7,1-1.2,1.5,0,.9-.4,1.6-.8,2.4-.3.6-.5,1.2-.8,1.8v-.3c0,.2,0,.4,0,.6-.4.7-.8,1.4-1,2.3.3-.8.7-1.4.9-2,0,.3,0,.6,0,.9s0,.3,0,.5h0v.3c0,.1,0,.3.2.4.5,1.2,1.3,2.4,2.3,3.3-.2.5-.4,1.1-.5,1.6.2.2.3.3.5.4.7,1.1,1.3,1.3,1.6,1.1.3-.2.5-.8.4-1.6,1.2.7,2.4,1.1,3.5,1.1,0,.6.3,1,.9,1.2.3.1.6.2,1,.2h1.3c1.9,0,3.8-.3,4.3,1.1.5-.2,1.2-.3,2-.5h.7c.2,0,.5,0,.8-.1.6-.1,1.2-.3,1.9-.4,2.5-.7,5.4-1.5,7.7-2.3,2.3-.8,4-1.8,4.3-2.7,0,.3,1,.3-.5.6.8-.1,1.6-.2,2.4-.3.6,0,1.2-.2,1.8-.3,1.2-.2,2.3-.6,3.3-1.3l1.5,1.5c1.6-1.2,3.1-2.5,4.7-3.7,3.5.2,5,.5,2.2,2.7,3.6-2.1,5-2.7,6.4-3.3,1.3-.6,2.5-1.1,5.5-3.2v1.2c2.3-.8,5.5-3.4,7.2-2.9,1.4.1,3.8-.3,6.6-1.1,2.8-.8,6.3-1.9,9.9-3.2,7.3-2.6,15.4-5.7,22.2-7.3-3.8-2.2,6.5-.9,6-3.7,1.1.5,3,.2,1.2,1.7,6.2-3.4,10.2-2.9,13.8-6.9,1.1.4-.9,1.7,0,1.9.4-.4,1.8-1.5,2.6-1.4.9.2-.7,1-1.6,1.8,6.5-2.9,6.2-5.6,5.7-8,3.8-.4,5.4-1.3,7.1-3.8,1.5.2,3.7.1-.2,2.2,2.3-.9,14.4-5.2,13.9-7.1.9.1,3.2-1.4,3.7-1.8,5.1-2.3,5.7-2.3,10.5-4.9l-1.5.4c.9-3,3.9-2.4,7.7-4.7v.3c4.9-1.6,5.8-2.2,6.7-2.9s1.8-1.3,6.7-2.8l-1.2-1c-.3-1.6,1.9-2.2,4.7-3s6.3-1.6,8.5-3.6l-2.2.4c2.2-2.5,9.9-.9,12.8-2.3.7-.1-.7,1-1.5,1.6,8.2-2.9,0-2.2,5.1-5.9,1.5.2.1,3,3.8.8,1.1-.2,3.3-2.6,5.9-5.2s5.5-5.3,8.5-6.2c-1.5.1-3,.2-.9-2,1.7-1.4,4.6-2.7,7.3-4.1,2.7-1.4,5.1-3.1,5.9-5.4.6-.2.9-.2,1,0,.6-.7,1.4-1.5,2.2-2.4.9-.9,1.8-1.9,2.7-2.9,1.8-2,3.4-3.9,3.7-5.1,2.8.8,6.4-3.2,9.6-7.1,1.6-2,3-3.9,4.3-5.3,1.2-1.3,2.3-1.9,3.2-1.2,2.4-2.9,4.5-6.1,6.4-9.5l.3.5c2-3.2,2.8-5.6,3.1-7.5,0-.2.1-.5.2-.8,0-.3.1-.6.1-.8v-4c.8-2,.9-.6,1.1-.3.9-3,1.6-5.6,2.1-7.7-1.4-1.1-2.6-2.1-3.9-2.9-1.2-.8-2.4-1.5-3.6-2.2-1.3-.6-2.6-1.2-4.2-1.7-.2,0-.4,0-.6-.2-.2,0-.3,0-.5,0-.3,0-.7-.2-1.1-.2-.7-.2-1.5-.2-2.4-.4l-.3-1.7c-1.3,0-4.7-2-9.4-3.3-4.7-1.4-10.5-2.1-15.4-1.3.1-.2.3-.4,1.1-.7-2.8.4-5.7.3-8.7,0s-6-.7-8.8-1c-5.6-.6-10.3-.7-12.3,1.9l-7.1,1.3c9.1.5-1.4,2.3,2.4,3.3-3.6.3-9.3-1.7-4.9-1.9l.7.3c1.6-2.8-11.4-1.1-11.1-3-9,0-17.9-.4-26.6-.8-2.2,0-4.4-.2-6.5-.3-1.1,0-2.2,0-3.2-.2h-1.3c-.3,0-.6,0-.9-.2-1-.2-1.9-.7-2.6-1.4-.4-.3-.6-.7-.9-1.2-.2-.4-.4-.8-.6-1.4-.6.5-1.1,1.2-1.6,1.8-.2-.4-.3-.8-.5-1.3l-1.4,4.5,2.9-2.1c.7-.2,1.4,0,1.4.3s0,.5-.4.8c-.3.4-.8.8-1.6,1.4.6,0,1.2-.4,1.7-.8s1.1-1,1.5-1.6c.9-1.2,1.5-2.4,1.4-2.6,1.8-.8,2.5-1,2.8-.8.2.2,0,.7-.5,1.3-.9,1.2-2.4,2.6-1.4,2l2.5-1.7h-.7c.8-.9,1.3-1.6,1.9-2.3.7-.8,1.7-1.5,3.9-2.4,2.9-.7,1.9.7,3,.4,0,.2.4,0,1.6-.5,2.1-.6,4.3-1.1,6.5-1.5-1-.4-2-.7-3-1.1.7-.4,1.4-.7,2.1-.9.7-.2,1.3-.3,1.7-.4.8-.3.8-.5-.9-1.2.7.3,1.6.4,2.6.5,1.1,0,2.3,0,3.6,0,2.7,0,5.8,0,8.9.2,3.1,0,6.1.5,8.6.9,1.2.2,2.3.5,3.1.7.4,0,.8.2,1.1.3.3,0,.5.2.6.3h1.2c.4,0,.7,0,1.1.2.7.2,1.4.6,2,1.2s1,1.3,1.4,2.1c.4.9.6,1.8.8,2.9.1-.5.6-1.1,1.1-1,.5,0,1.2.8,1.1,3.1-1-.4-1.6,0-2,.6s-.7,1.6-1.1,2.8c-.4,1.1-.9,2.4-1.6,3.4-.4.5-.7.9-1.2,1.3s-1,.8-1.5,1c1.6-.9.2,1.9-1.2,4.5-.7,1.3-1.5,2.4-1.7,3.2-.2.7,0,1.1,1.4.4-1.3,1.4-1.7,1.2-1.9.8-.3-.3-.6-.8-1.9,0-.5,1-1.2,1.8-1.9,2.6-.8.8-1.6,1.6-2.5,2.3-.5.3-.9.7-1.4,1-.2.2-.5.3-.7.5l-.8.4c-.5.3-1,.5-1.5.8-.5.2-1.1.4-1.6.6s-.5.2-.8.3l-.8.2c-.6,0-1.1.3-1.6.4-.6,0-1.1.2-1.7.3-.6,0-1.1,0-1.7,0-1.1.2-2.2,0-3.4,0s-1.1,0-1.7-.2h-.9l-.9-.2c-.3.5,1.2,1.6-1.1,1.9-.8-.6-1.5-1.3-2.2-2l-1-1-1-1.1c-1-.3-1.7.2-2.6.3-.9,0-1.8,0-3.2-1.9.3.7.7,1.7-.7,1.1-2.3-1.7-4.7-3.3-7.3-4.9s-5.4-3.2-8.6-4.4c-3.2-1.2-6.6-2-10.2-2.2-3.6,0-7.3.4-10.8,1.8s-6.6,3.7-9,6.4c-2.5,2.7-4.3,5.7-5.8,8.9-2.8,6.3-4.3,12.7-5.6,19.3,1.1-3.5,1.1-1.1,1.2,1.5.2-1.7,1.3,0,2-.3-.6,3.5-1,7.1-1.1,10.7.6.4,1,1.3,1.3,2.4.3,1.1.7,2.5,1,3.8.4,1.3.7,2.6,1.2,3.6s.9,1.7,1.5,1.8c-.5-1-.9-2-1.3-3.1,1.7,1.8,2.4,0,3.2-2.3.8-2.2,1.7-4.7,3.2-4.7-.8-1-1.1-2.2-1.2-3.7,0-1.4.2-3,.5-4.7.6-3.3,1.2-6.7-.2-10.4.4-.8.6-.4.8,0,.2.4.4,1,.8.6-1-1.8-1.1-4.2.5-7.8l.2.5c.6-2.6,1.5-4.7,2.5-6.4,1.1-1.7,2.3-3,3.6-4,1.4-1,2.9-1.8,4.6-2.2,1.8-.5,3.8-.7,6.3-.3-.2-.5-.5-1-.7-1.4,1.1,0,1.8.3,2.4.6.5.3.9.5,1.4.8,1.6-.7,0-1.2-1.8-1.5-1.7-.2-3.4-.2-2.2-1.4.8.7,2.2,1.2,4,1.7,1.7.5,3.7,1.2,5.8,2.1,4.1,1.9,8.2,4.6,8.5,6.6,4,2.3-.4-2.1,3.6.2l.7,1.4,1.6-.4c2.7,1.7,3.7,3.4,3.6,4.1-.7-.4-2.2-.8-3-1.2,1.6,1.4,4.5,2.8,7.5,3.5.7.2,1.4.4,2.1.5.7,0,1.3.2,1.9.3,1.1.2,2,.3,2.4.5-.9-.3-1.7-.6-2.6-.8l-1.3-.4-1.2-.5c3.6.9,7.7,1.6,11.8,1.3,4.2-.2,8.4-1.2,12.2-2.8,3.9-1.7,7.2-4,10-6.6,2.9-2.6,5-5.5,6.7-8.4-.4,0-.7.3-1.1.4,1.3-2.2,2.2-3.6,2.9-4.8.7-1.2,1.4-1.9,2-2.8.3-.4.6-.8,1-1.3s.7-.9,1.1-1.7c.8-1.5,1.7-3.5,2.2-6.4v.5c0-2.5,0-5.7-.3-9.1.6,1.5.8,0,.9-1.5,0-.8,0-1.5.2-1.8.1-.3.4,0,.9.9-.6-1.7-1.2-3-1.8-4s-1.2-1.8-1.7-2.4c-1-1.2-1.7-1.6-2.2-1.9-.6-.3-1-.4-1.9-.7-.9-.2-2.1-.7-4.3-.9-.4-.6-.9-1.2-1.4-1.7-1.5,0-2.1.4-3.2.4s-2.4,0-4.9-.3c2.2,0,1.4-.7.8-1.3-.7-.6-1.3-1.2,1.2-1.4-5.4-2.2-9.8-1.8-13.2-1.3-1.7.2-3.2.4-4.7.5-1.4,0-2.8-.3-4.2-1-2.4,1.9.1,1.9,2.8,1.8,1.4,0,2.8-.2,3.7,0,.9,0,1.3,0,.6.2,1.2.5.1,1-1.6,1.5-.9.3-1.9.5-2.9.7s-2.1.4-2.9.4c-1.7,0-3.3-.5-5.7-1.1-1.2-.2-2.5-.4-4.2-.3-.8,0-1.7.2-2.6.4-.5,0-1,.2-1.5.3-.5.2-1,.3-1.6.6.9-.3.8-.6,1.7-.8-.9,0-1.7.4-2.5.7-.8.3-1.6.8-2.4,1.2-.8.5-1.6.9-2.5,1.3s-1.8.8-2.9,1c-.6,1.3-1.8,2-2.8,2.7-1,.6-1.7,1.2-1.4,2.4,1.1-.8,2.2-1.6,3.4-2.4,1.1-.8,2.4-1.4,3.5-2.2-.9.7-1.8,1.4-2.7,2.2-.9.8-1.7,1.8-2.6,2.7-.9.9-1.8,1.9-3,2.8-1.1.9-2.4,1.9-4,2.8l-1.1.6.4,1.9c0,.2,0,.5.1.8-.1,0-.3-.2-.5-.6v-.2c-.1,0,.9-2.7.9-2.7.3-.8,1.4-2.2,2.2-3.2-1.3.5-2.1,1.4-3,2.2l-2.2,2.1.9,2.2c.2.5.4,1.1.6,1.6.2.6.4,1.2.6,1.8-.8.2-1.8-1-2.6-3l-1.2-3.1,3-2.7c1.2-1.1,2.9-2.5,4.8-3.8,1.8-1.4,3.6-2.7,4.9-4.1-.7,0-1.5.6-2.3,1.1-.4.3-.8.6-1.2.9s-.8.7-1.1,1c-1.4,1.2-2.3,1.9-2,0-.5,1.9-1.8,3.2-3.4,4.3l-3.1,2.1,1.2,4.2c.5,1.8,1.3,4,2.7,5.9.7.9,1.6,1.8,2.6,2.5,1.1.7,2.2,1.2,3.5,1.4-.4.3-.8.7-1.2,1,1.4.6,4.3,1,6.7,1.4-1.5.4-3.3.6-5.1.5.9.2,1.9.3,2.8.5.9.2,1.8.3,2.6.4s1.6.2,2.5.3c.6,0,1.1.2,1.7.3,2.2.4,4.4,1,6.6.6-9.3,0-2.1-1.7-6-2.8,11.5-1.8,6.6,3.8,19.5,3.2-1.7.2-6.5-.9-3.8-1.5,2.4.3,5.7.9,7.2,1.6,8.5-.2-1.3-1.5,2.3-2.3,2.9,1.8,4.2-.7,7.9-1.2v1.4c9.7,1,2.6-3,11.4-1.8l-3.7,2,4.6-.5-.9,1.6c5-1.2,6.5-.9,11.4-.4-1.1-1,.6-2.6,4.9-2.6,2.9.9-1.6,1.4,4.4,1.2-1.4.9-2.9,2-5.5.7-.3.5-1.4.9-1.6,1.4,3.2,1,7.9.3,10.1.3-.9,0-1.9,0-2.4-.3l8.9-2c1.4.6.3,1-.8,1.4,1.8-.2,3-.8,5.7-.9-.7,1.2-.5,2.4-4.3,2.9l8.3-1.2c.6.5,4,1.5,3,1.9,2.1.4,4.7,0,7.4-.2,2.7-.2,5.5,0,7.8,1.1.3,0,.9-.2,2,0,.9.4,1.8.9,2.6,1.4.4.2.9.6,1,.7s.2.3.4.4c.5.5.8.9,1.7,1.2,0,.2.2.5.4.8-.9.5-1.7.8-2.5.9.1.4.8.5,1.6.4.4,0,.8,0,1.1,0,.1,0,.2.2.3.5v.5c0,.3-.2.7-.3,1.2-.8,2.7-1.5,2.9-2,2.7-.6-.2-1.1-.9-1.8-.2,0,.7-.2,1.5-.3,2.5-.2.9-.5,1.9-.9,3-.9,2.1-2.4,4.1-4.8,5.5.9-1.6,2-2.4,2.9-3.7h-1.1ZM216.1,162.2c.9-.9,2.5-3.1,3.7-2.9-.2,2.2-1.6,2.2-3.7,2.9ZM128.7,211.4c.7-.8,2.1-1.2,3.9-1.4-1.1.6-2.4,1.1-3.9,1.4ZM120.4,142.7h0c-2.7,1.3-1.7.9,0,0ZM125.7,139.7c.4-.5.2-.7,0-.7,0,.5-1.2,1.4-2.5,2.2.6,0,1.3-.2,2.6-1.5h0ZM169.3,77.5h-1.1c2.1-1.2,1.6-.6,1.1,0Z"/>
  <path class="st1" d="M138.4,205c.4,0,.6.3.8.5.4-.4.3-.7-.8-.5Z"/>
  <path class="st1" d="M263.6,102.6h-.1c-.1,0-.2,0-.2.2.1,0,.3,0,.4,0h0Z"/>
  <path class="st1" d="M59.4,205.5c-1.1.6-1.8.8-2.3.9.2.3.8.2,2.3-.9Z"/>
  <path class="st1" d="M150.2,119.3l-2.9,2.5c1.5-1.1,2.2-1.2,3.1-1.6-.3-.2-1.1-.2-.2-.9h0Z"/>
  <path class="st1" d="M182.8,107.9c.4-.5,1-.7,1.3-1.1l-.5-.5c-2,1.3-3.1,2.7-.8,1.6h0Z"/>
  <path class="st1" d="M155.9,121.2c.9.8,2.7-.9,4.8-2.6-.1,0-.2.2-.4.3-.3-1.8-2.4.2-4.4,2.3h0Z"/>
  <path class="st1" d="M161.1,118.2c.6-.5,1.3-1,2-1.4-.1-.7-.9.5-2,1.4Z"/>
  <path class="st1" d="M131.4,134.6c1.2-.5-.3-1.7.6-1.8.2-2.1-5.8,6.5-.6,1.8Z"/>
  <polygon class="st1" points="159.9 123.3 158.3 122.6 157.8 124.4 159.9 123.3"/>
  <path class="st1" d="M142,134.5l3.7-2.1c-.2-.2.2-.6.6-1.1-2.2,1.5-4.7,2.9-4.4,3.2h0Z"/>
  <path class="st1" d="M146.3,131.3c1.1-.8,2.2-1.6,2.7-2.2-.6.4-1.9,1.4-2.7,2.2Z"/>
  <polygon class="st1" points="155.4 127 154.2 127.4 151.6 129.1 155.4 127"/>
  <path class="st1" d="M104.5,161.4l-3.5,3.2c0,.7,1.1.2,2.4-1,.7-1,1.9-2.2,1.1-2.1h0Z"/>
  <path class="st1" d="M118.3,156.3c-1.2.5-1.5.3-2.3.3l1,1.6,1.3-1.9h0Z"/>
  <path class="st1" d="M107.6,164.7c0,.7-4.5,5.3,0,1.6,0-.7,3.6-3.9,0-1.6Z"/>
  <polygon class="st1" points="50.6 206.1 51.5 205.3 49.4 203 50.6 206.1"/>
  <path class="st1" d="M26.3,239.8c0-.5,0-.6-.4-.6s-.8.2-1.3.3c-.9.3-2.3.5-.5-.6-.6,0-1.2.5-1.9,1l-.2.2s-.2.1-.2.2-.1.3-.2.4c-.2.2-.4.4-.8.4,1.1.4,1.7.8,2.4.7.7,0,1.4-.6,3.2-1.9h-.1Z"/>
  <path class="st1" d="M20.7,240.9c-.2,0-.4-.1-.6-.2,0,0-.1-.1-.2-.1h0c0,.1.1.1.1.1.2,0,.4.1.6.1h.1Z"/>
  <path class="st1" d="M110.6,152.5c.2,1.3.3,2.7.5,4,0-.9.2-1.9.3-2.8l-.8-1.2Z"/>
  <path class="st1" d="M115,159l-1.5,1.6c.8.5,1.7,1,2.5,1.5-.4-.8-1.2-2.3-1-3.1Z"/>
  <path class="st1" d="M205.9,164.2v.5c.8.1,1.5-.2,2.9-1l-2.9.5h0Z"/>
  <polygon class="st1" points="244.6 137.8 244 138.3 246.3 138.6 244.6 137.8"/>
  <path class="st1" d="M266.8,109.9c-.6,1.1-.9,2.6-1.6,3.7.6-1.3,1.5-2,2-2.6s.7-.8-.4-1.1h0Z"/>
  <path class="st2" d="M113.9,225.7c-.4,3.1.3,6.1.5,9.1,0,.3-1.1.2-1.4,1.4s-.3,2.4-.3,3.6h-3.5c.9-4.1,2.3-7.3,2.7-11.5.2-1.9.2-1.3-1.6-1.3v-1.2c1.7,0,1.3-.3,3.5,0h.1Z"/>
  <path class="st0" d="M93,19.9c2.7.4,5.2-2.2,6.7-4.1.7-.9.7-2.1,1.2-2.9,1.3-1.9,9.4-3.6,12-4.9,1.6-.8,3.1-2.6,4.5-3.1,2.7-1,7.2-.9,10.1-1.6,1-.3,1.7-1.5,3.1-1.6,1.9-.2,9.2,1,10.9,1.9,4.1,2.2,2.9,6.7,6.3,8.3,1,.5,4.2,1.4,5.6,1.9,1,.3,2.2,0,3.2.3,1.4.4,3.4,2.8,5.1,3.1l-.9,19.5c-1.3,1.5-.6-.5-1.3-.6-1.1,0-7.4.7-7.8,1.5-.7,1.5,1.2,1.4,1.2,1.8,0,.6-.8,1.3-.3,2,.8,1.5,3.9.9,2.1,5.2-.3,0-.9.6-1.2.6h-4.6c-.8,2.4,1.5,4,1.7,5.6.4,2.3-1.7,4.6.8,5.7.7.3,1.5-.2,1.5-.2.3.6,0,2.6,1.2,3.5l-4.1-.6c0,2.4,1.5,4.7.6,7-.2.2-2.3-1.1-2.3-1.2-.3-.6,0-4,0-5.2-.1-1.7-1.1-3.2,0-5.2-2.2.7-3.7-1-5.5-1.2-3.4-.5-6.9,2.4-5.6-2.3.7-2.3,1.9-2.5,2.6-3.5.4-.7.2-1.5.3-1.7,0,0,.8.3,1.1-.4.2-.3.7-3.5.6-3.7l-4.6.6c-.3-1.8,1.4-.9,2.6-1.7,1.9-1.2,2.3-4.2-.6-4.2s-2.7,3.1-3.2,3.5c-.4.3-2.7-.9-4.5-.2-1.2.5-.8,1.8-1.5,2.4-2.5,2.5-4.5,2.3-7.7,2.5-1.1,0-2.3-.6-2,1.2-1.7-.6-3.6-.6-5.2-1.2,0-2-1.4-1.8-2.3-2.3-.8-.5-1.7-.5-1.7-.6,0,0,.6-1.8-1.9-1-2.3.7-2.4,2.2-3.4,3.4,0,0-1-.3-1.2.4-.2.9,0,2.2,0,3.1-2,1.4-2.8.5-4.1.6l-.6-2.9c-5.7-.4-6.6,5-1.7,7,0,3-4.6,6.7-5.3,9.9-.3.2-.7,0-1.1,0,0-2-2.1-2.4-3.1-3.6s-.9-3.2-3.7-3.6l-6-10.7c-.4-2.3,3.2-3.3,3.8-4.4,1.5-2.6,1.9-8.4,2.8-11.2.4-1.3,3.6-6.8,4.5-8,1-1.4,1.7-1.9,2.9-2.9h0Z"/>
  <path class="st0" d="M134.3,119.8c0,.3-.7.9-.9,1.7-4.5,21.2-9,42.5-13.3,63.8-1.8,1.5-4.6,2.2-6.4,3.5-3.1,2.2-7.3,10-11.2,10.4-1.2.1-2.2-.6-3.8-.4s-6.8,2.9-7.4,3.4c-1.7-5.2.9-7.9,2.3-12.3,0-.4.5-.8.6-1.2,2.7-.3,2-4.5,2.6-6.4,0-.4,1.2-2.3,1.5-2.9,1.3-2.4,2.5-2.4,3.5-5.2,1.6.4,1.3-1.2,1.7-2.3.2-.5.4-2.2.6-2.3.4-.3,1.2.7,1.2-.9s-1.2-3.6-1.2-4.1v-11.1c0-.6,1.1-2.9,1.2-5,0-1.3,0-2.8,0-4.1,1.2.1,1.3,0,1.2-1.2,0-.2.7-2.6,1.7-4.1.5-.7.9.3,1.7-2.9.3-1.1.3-2.5.6-3.5,1.5.3,1.2-.4,1.2-1.7,1.8-4.3,3.2-7.9,6.7-11.1.5-.5,1.4-.5,1.5-.5,1.2.2,1.3,0,1.2-1.2h.6c1.3-.3,2.5-.9,3.8-1.1.9-.2,2.7.2,3.1,0,.2-.2,0-.9,0-1.1.4-.7,1-.9,1.2-1.2,1.2,0,1.3,0,1.2-1.2v-.6l5.8-6.4c-.9,4.4-1.4,9.1-2.3,13.4h0c0,0-.2-.2-.2-.2Z"/>
  <path class="st2" d="M130.8,112.8c.9-1.4,2.4-5.4,3.2-6.4.6-.7,1.7-.4,2.1-1,2.6-3.4-3.9-15.6-7.6-16.8-5.4-1.8-15,3.3-19.2.5-2.8-1.9-1.1-4.8-1.3-6.3,0-.5-4.6-8.3-5.1-8.8-.7-.6-1.8-.7-2.5-1.5-.8-.9-1.1-3-1.9-3.5-1.4-.9-3.7,0-4.8-1.4,1.4-1.3,3.2-1.7,4.1-3.5,1.2.3,4.2-2.5,4.6-2.1,1.8,1.9-4.7,4.2-5.2,5.3,1.5-.9,2.9,2.3,3.3,2.4,1.8.2,4.8-3.3,7.2-2.4,1,2.5-6.1,4.2-4.1,6.4,1.1,1.1,4.7-2.9,5.2-2.3.3,2.4-2.5,3-2.3,5.5,0,1.6,1.9,2.7,2.2,4.2.5,2.5-1.3,7.3,2.7,6.6.5,0,6.1-6.1,7.2-6.3,1-.2,2.1.4,3,.9,1.4.6,9.5,6,10.5,6.9.4.3,4.4,5.7,4.6,6,.7,1.5,1,5.3,1.2,7.1h1.7c.3-6,1.6-11.8,3.1-17.7.5-2,1.6-4.6,2.1-6.7.2-.8.4-4.1.7-4.3,1.2-1.3,1.2,3.1,2.9,2.3-1.5,5.9-4.4,13.8-5.1,19.8-.2,1.6.8,3.1.5,4.5-.1.7-1.5,0-1.8.7-1,2.7,0,7.4-.7,9.8-.3,1.1-1.9,1.5-2.2,3.1-.4,1.9.3,4.5,0,6.4-.3,1.3-1.5,1.7-1.7,2.9-.4,2.1.5,5.6,0,7.5-.2.6-1.4.6-1.7,1.4-.5,1.4.2,3.9-.2,5.6-.3,1.4-1.9,2.6-2.1,4.4-.3,1.8.7,3.1.5,4.5-.2,1.2-1.4,1.6-1.7,2.5-.5,1.7.2,4-.1,5.7-.3,1.3-1.6,1.7-1.7,3-.2,1.5.8,3,.5,3.9-.2.8-1.4,1.2-1.7,2.4s.2,2.7,0,4.1c-1.2,7-3.2,13.2-4.6,19.9-1.2,6.1-1.4,12.5-3.5,18.4-.6-.1-1.6.2-2.5-.1-4-1.5-3.4-5.7-5.1-8.9l4.7-3.2c-.9,3.4-1.6,9.6,3.4,6.1-.2-2.7.9-5,1.3-7.5,0-1-.6-2.1-.3-3.2s1.5-1.1,1.4-1.4c-.7-7.6,2.5-12.4,2.4-18.7,0-.4-1.2,0-1.2-1.1,0-3.2,2-3.4,2.2-4.2.9-2.5.8-7.5,1.3-10.4,2-10.6,4.1-21.5,6.5-32.1.3-1.1,1.2-1.9-.7-1.6.9-4.4,1.4-9,2.3-13.4l-5.8,6.4h0l-.2-.3Z"/>
  <path class="st2" d="M93,19.9c1.5-1.3,4-2.6,4.9-4.1s.7-3.7,1.3-4.1c2-1.6,7.9-2.8,10.5-3.9s5.2-3.5,7.4-4.2c4.5-1.5,15.8-3.6,20.3-2.7,2.5.5,7.8,2.8,8.9,5.1.7,1.4-.3,3.5,1.5,4.4.9.4,2.1.2,2.9.6,1,.5,2.1,1.6,2.9,1.8,1.1.3,2-.5,3.1-.3,1.2.3,2.4,2.9,3.7,3.3,2.4.7,7.5-1,8.6,2.4.4,1.1.6,3.9.8,5.3-2.3-1.3-2.2.7-2.4,2.6,0,.7-.3,6,1.2,4.4.6-.6.1-3.1.1-3.9s-.8-2.3,1.1-2c.3,2.2.2,5.7.7,7.8.3,1.1,1.9,2.2,2,3.1s-.7,2.6,0,4c-.2.9-2.1,1.2-2.2,1.8,0,.4,2.2,6.8,4,6.2.4,1.4-1.1,1.3-1.6,1.9-.7,1-1.8,2-1.9,2.2-.1.2.1,1.1-.3,1.7-.3.5-1.3.5-1.4,1-.5,2.1,1.3,5.5-2.3,6,3,2.2.3,12.6.8,13.5.2.3,4.8,3.8,5.4,4,2.7.6,3.6-1,5.1-1,3.6,0,5.8,5.6,8.5,7.2,1.9,1.1,10,2.7,10.4,4.4-3.2-.5-8.8-1.7-11.5-3.4-2.1-1.3-4.7-6.2-6.9-6.6-1.3.6-5.9,1-6.5,1.3-.2,0-2.1,2.4-2.5,2.8-2.5-1.4-7.4-1.8-7.6-5.2l-6.3-.7c0-1-.5-4.9-.6-6.7-.3-6-2.3-.6-2.5-.5-.7.6-3.9,0-4.5,1.9-.1-1.5,0-1.3,0-2.6s-3.2-1.2,0-1.5c0,0,2.1,1.4,2.3,1.2,1-2.4-.5-4.6-.6-7l4.1.6c-1.3-.9-.9-2.9-1.2-3.5,0,0-.9.5-1.5.2-2.5-1.1-.4-3.3-.8-5.7-.3-1.6-2.6-3.2-1.7-5.6h4.6c.1,2.5,1.3,2.5,3.5,2.9.3.9-.2,2.5,1.7,2.3l.6-5.2c1.5,0,5.2.6,5.2,2.6s-2,1.7-1.8,3.2c1.4-.6,1.9,1.2,2.1,1.2,1.9.3,1.6-1.3,2.2-1.6.7-.4,3.4-.8,3.9-1.3.8-.9-.9-3,1.2-3.2-.5-.7-1.9-.9-2.2-1.9-.3-.8-.9-6.8-1.3-7.2h-1.7c-.1,0-.4,2.9-.7,3.7-.2.5-1,.5-1.1.9-.2.7.1,2.3,0,2.5h-2.3c-.2-.2-.5-5.5-.6-6.4-2.9-.8-1.3,1.9-1.7,2.3-.2,0-3-.7-3.3,2.1-.1,1.1,1.6,4.1-.8,3.7-.3-.5-1.3-1.1-1.7-1.2,1.8-4.3-1.3-3.8-2.1-5.2-.4-.7.3-1.4.3-2s-1.8-.3-1.2-1.8c.3-.8,6.7-1.6,7.8-1.5.6,0,0,2.1,1.3.6l.9-19.5c-1.7-.3-3.7-2.7-5.1-3.1-1-.3-2.2,0-3.2-.3-1.5-.5-4.6-1.4-5.6-1.9-3.4-1.6-2.2-6.1-6.3-8.3-1.7-.9-9-2.1-10.9-1.9-1.4.1-2.1,1.4-3.1,1.6-2.8.7-7.3.6-10.1,1.6-1.4.5-2.8,2.3-4.5,3.1-2.7,1.3-10.7,3-12,4.9-.5.8-.6,2-1.2,2.8-1.4,1.9-4,4.5-6.7,4.1h.2ZM170.9,38.5c.4-.4,0-4.1-1.7-3.5v3.5c.5,0,1.6,0,1.7,0ZM166.9,59c-2.8-.4-3.5,0-3.5,2.9h2.9c.3-.2-.6-1.5-.6-2s1.5,0,1.2-.9h0ZM157,61.4c-1.8-.2-1.9,1.5-1.7,2.9,1.8.2,1.9-1.5,1.7-2.9ZM164.5,63.7c-1.2-1.3-4,6.1-3.4,7.8.3,1.1,2.7,1.3,3.4.9.2,0,1.7-4.2,1.7-4.4.2-1.5-1.9-1.7-2.2-2-.3-.4.8-1.9.5-2.3h0Z"/>
  <path class="st2" d="M137.2,53.2c-1.4,4.7,2.1,1.9,5.6,2.3,1.8.3,3.3,1.9,5.5,1.2-1.1,2.1-.1,3.5,0,5.2-4.2.5-2.3-.5-3.2-2.3-1.1-2.2-2.5-2.8-5-2.9-.7,1,0,2.7-.2,3.3,0,0-.6.2-.8.4-.3.4-.2,1.2-.4,1.3-.4.4-1.5,0-1.6.5-.6,2.7,1.6,3.4-1.1,7-2.1,2.7-7.3,4.3-8,5.1-.3.3,0,1.3-.7,1.9s-4.8,2.8-5.5,2.7c-1.5-.3.5-4.2.9-4.8.9-1.2,3.2-1.9,4-3.2,1.1-1.8.3-4.3,1.8-6.4,1.1-1.5,6.1-5.3,8.2-5.5.8-1-4.1-4.7.6-5.8h-.1Z"/>
  <path class="st2" d="M120.3,47.9c-.3-1.8.9-1.1,2-1.2,3.2,0,5.2,0,7.7-2.5.6-.6.3-1.9,1.5-2.4,1.8-.8,4,.5,4.5.2.5-.4.3-3.5,3.2-3.5s2.5,3,.6,4.2c-1.3.8-3,0-2.6,1.7l4.6-.6c.1,0-.4,3.3-.6,3.7-.4.7-1.1.4-1.1.4.5-1.7-1.7-1.4-2.5-1.1-.6.2-2.9,3.2-3.9,2.3,2.4-4.6-2.3-4.8-3.8-2.3-.8,1.3,1,3-.6,3.4-2.5.7-5.6-.2-7.9-1.1-.4-.2-.8-1.1-1-1.1h0Z"/>
  <path class="st2" d="M90.1,22.8c-.9,1.3-4.1,6.8-4.5,8.1-.9,2.8-1.3,8.6-2.8,11.2-.6,1.1-4.2,2.1-3.8,4.4l6,10.7c2.7.4,2.7,2.5,3.7,3.6,1.1,1.2,3.1,1.6,3.1,3.6-1.1,0-3.4-1.1-4.1-2-3.8-4.5-5.7-8.3-8.7-13.4-.8-1.4-3.2-.8-.9-4.5.8-1.3,2.7-2.1,3-2.5.3-.5,1.9-5.2,2.2-6.3,1.5-4.5,1.5-10.6,6.7-12.9h.1Z"/>
  <path class="st2" d="M106.4,224.5c-3-.6-2.9,2.6-5.8,2.9,1.2,2.4,4.1.7,5.8.6.3,1.2-.6,1.5-1.6,1.6-5.1.8-13.9-2.4-15.9-7.8,1.9-1.3,2.3,1.3,3.2,2.1,3,2.5,8.8,3.3,10.9-.7,1.8-3.5-2.4-.7-1.3-4.8,2.6-1.2,3.8,4.2,4.7,6.1h0Z"/>
  <path class="st2" d="M122.7,212.2c.2.2,0,1.3.9,1.7,1.5.5,3.9,0,5.6.8.9.5,1,1.9,2.7,1.9-1.6.1-3.4.8-5,.9-2,.1-4.4-2.1-4.3,1.7-5.2-1.2-1.7-.6-.9-3.5,1.1-3.7-4.2-1.7-5.5-4.1,1.3,0,5.7-.2,6.4.6h.1Z"/>
  <path class="st2" d="M93.5,190c-1.5,4.4-4.1,7.1-2.3,12.3-2.6,2.1-3,6.7-2.9,9.9-1.9-.7-1-5.2-.5-6.6,1.3-4.2,1.6-1.6,1.6-7.1s1.7-7.9,4.1-8.5h0Z"/>
  <path class="st0" d="M106.4,224.5c1.3.3,1.8,1.3,4.1,1.2v1.2c0,.9-.5,1.5-.6,1.8-.5-.3-1.1-.5-1.7-.6h-1.7c-1.7.1-4.7,1.8-5.8-.6,2.9-.3,2.8-3.5,5.8-2.9h-.1Z"/>
  <path class="st2" d="M105.2,148.5c0,2.1-1.2,4.4-1.2,5v11.1c0,.5,1.2,2.3,1.2,4.1s-.8.6-1.2.9c.7-1.7-1.2-4.5-1.2-5.6v-10.5c0-.3,2-4.2,2.3-5h0Z"/>
  <path class="st2" d="M125,219.8c1.5.2,3.2,0,4.9,0s4.1.2,3.9,1.4c-2.8,1.2-5.6,1.9-8.7,1.5.2-.9,0-2,0-2.9h0Z"/>
  <path class="st2" d="M98.2,54.4c-4.9-2-3.9-7.5,1.7-7l.6,2.9c-.2,0-.9.8-2,.6-.5,0,0-1.9-1.5-1.2-.4,1.9,1.1,2.8,1.2,4.7h0Z"/>
  <path class="st2" d="M124.4,223.3s0,.8.2,1c.5.2,5.2,1.5,3.9,2.5h-5.8l-1.2-3.5c.7.1,2.5-.2,2.9,0h0Z"/>
  <path class="st2" d="M98.2,179.5c-.3.5-1.3,2.5-1.5,2.9-.6,1.9,0,6.1-2.6,6.4,1.1-3.3.5-8.2,4.1-9.4h0Z"/>
  <path class="st0" d="M169.8,23.4v1.2c-1.9-.3-1.1.9-1.1,2s.5,3.2-.1,3.9c-1.5,1.7-1.2-3.8-1.2-4.4.1-1.9,0-3.9,2.4-2.6h0Z"/>
  <path class="st2" d="M109.8,228.6c-.3,2.3-.2,4.5-1,6.9-.3,1,.3,1.5-1.3,1.3,1-2.8,1.7-5.9.6-8.8.6,0,1.2.3,1.7.6h0Z"/>
  <path class="st2" d="M128.4,115.7c-.1.2.2.9,0,1.1-.4.3-2.3,0-3.1,0-1.3.3-2.5.8-3.8,1.1.3-2.3,5.2-3.1,7-2.3h-.1Z"/>
  <path class="st2" d="M105.8,46.2c.9-1.2,1-2.7,3.4-3.4,2.5-.7,1.7.9,1.9,1-.7.6-5.1,2.1-5.2,2.3-.5.9.9,2.1-1.2,3.5,0-1-.2-2.3,0-3.1.2-.7,1.1-.3,1.2-.4h-.1Z"/>
  <path class="st2" d="M125.5,207c.5,0,1-.2,1.2.3.4,1.3-.6.7-1.2.9-.3,1.6-.5,2.5-1.7,3.5.2-.7.3-3.1.7-3.4.3-.3.8,0,1.1,0v-1.2h0Z"/>
  <path class="st2" d="M115.1,46.7c-1.3-.5-2.2-.5-2.3-2.3.9.6,2.4.3,2.3,2.3Z"/>
  <path class="st2" d="M109.8,136.2c-.8,3.2-1.2,2.2-1.7,2.9.5-1.3,0-3.4,1.7-2.9Z"/>
  <path class="st2" d="M103.4,171.9c-.4,1.1,0,2.7-1.7,2.3.4-1.1,0-2.7,1.7-2.3Z"/>
  <path class="st2" d="M111.6,131c0,1.3.4,2.1-1.2,1.7.5-1.4,1.1-1.7,1.2-1.7Z"/>
  <path class="st2" d="M120.9,118.1c.2,1.2,0,1.3-1.2,1.2.5-.5-1-.7,1.2-1.2Z"/>
  <path class="st2" d="M106.4,143.2c0,1.2,0,1.3-1.2,1.2.2-2.2.8-.8,1.2-1.2Z"/>
  <path class="st2" d="M130.8,113.4c.1,1.3,0,1.3-1.2,1.2,1-1.5.4-.5,1.2-1.2Z"/>
  <path class="st2" d="M138.4,214v2.9c-2.4.3-3.2-.5-2.9-2.9h2.9Z"/>
  <path class="st2" d="M155.2,77.7c.5,1.6-.9,3.2-1.2,4.1-.6-.8-.2-2.9,0-3.7.2-.7,1.1-.4,1.1-.4h0Z"/>
  <path class="st2" d="M153.5,86.5c0,.5,0,1-.6,1.2,0-.3-1.7-1.4.6-1.2Z"/>
  <path class="st0" d="M156.4,47.9c2.3.4.6-2.6.8-3.7.3-2.8,3.1-2,3.3-2.1.5-.5-1.1-3.1,1.7-2.3,0,.9.4,6.2.6,6.4h2.3c.1-.2-.1-1.8,0-2.5.1-.4.9-.4,1.1-.9.3-.7.5-3.5.7-3.7h1.7c.4.4,1,6.4,1.3,7.2.3.9,1.7,1.1,2.2,1.9-2,.3-.4,2.3-1.2,3.2-.5.5-3.2,1-3.9,1.3-.6.3-.3,1.9-2.2,1.6-.1,0-.6-1.8-2.1-1.2-.3-1.5,1.7-1.9,1.8-3.2,0-2-3.7-2.5-5.2-2.6l-.6,5.2c-2,.2-1.5-1.4-1.7-2.3-.2-.7-.3-1.9-.6-2.3h0Z"/>
  <path class="st0" d="M164.5,63.7c.3.3-.8,1.9-.5,2.3s2.4.5,2.2,2c0,.2-1.5,4.3-1.7,4.4-.7.5-3,.2-3.4-.9-.6-1.7,2.3-9.1,3.4-7.8h0Z"/>
  <path class="st0" d="M166.9,59c.3,1-1.2.3-1.2.9s.9,1.8.6,2h-2.9c0-2.8.7-3.3,3.5-2.9h0Z"/>
  <path class="st0" d="M157,61.4c.1,1.5,0,3.1-1.7,2.9-.1-1.5,0-3.1,1.7-2.9Z"/>
  <path class="st0" d="M170.9,38.5c-.1,0-1.3,0-1.7,0v-3.5c1.8-.6,2.1,3.1,1.7,3.5Z"/>
  <g id="Layer_4">
    <g>
      <path class="st0" d="M122.7,219.1c.8-.4,1.6-.8,2.4-1.2.3-.1.6-.3.8-.4-1.6-.4-3.2-1.2-3.2,1.6h0Z"/>
      <path class="st0" d="M121.8,207.6c.7.1,2.5-.5,3.7-.5s1-.3,1.2.3c.4,1.3-.6.7-1.2.9-.3,1.6-.4,2.5-1.7,3.5-.4.3-.6.6-1.2.6.2.1,0,1.3.9,1.7,1.5.5,4,0,5.6.8.3.1.5.4.7.7.6-.3,1.1-.6,1.7-.9,1.3-.6,2.2-1.9,3.1-3,2.8-3.2,6.5-5.4,10.6-6.3.7-1.1.4-2.8-.7-3.6,1.4-.7,3.1-.4,4.3-1.3.8-.6,1.2-1.5,1.7-2.4.7-1.6,1.4-3.1,2.2-4.6.6-1.3,2.5-.6,3.8-1.1s1.8-2.1,2.8-3.1c.8-.9,2-1.3,3-2s2.5-1.7,2.5-2.9c1.4,0,2.8-.6,3.8-1.6.7-.8,1.1-1.7,1.6-2.6,2.1-3.9,5.2-7.2,8.8-9.6.9-.6,1.8-1.1,2.7-1.8,5.3-3.9,7.5-10.7,11.2-16.2,1.6-2.4,3.6-4.9,3.1-7.7-.1-.5-.3-1.1,0-1.6.1-.3.4-.4.7-.6.1,0,.2-.1.3-.2v-1.4l-2.1-.4c.5-.3,1.3-.2,2.1,0v-52.3c-3.2-.6-8.8-1.7-11.5-3.4-2.1-1.3-4.7-6.2-6.9-6.6-1.3.6-5.9,1-6.5,1.3-.2,0-2.1,2.4-2.5,2.8-4.8,5.8-8.9,13.1-13.1,19.2-.6.9-7,8-7.5,8.2-1.3.5-.8-.7-.7-1.3.6-6,4.5-15.6,4.5-20.9s-1.7-1.4.6-1.2c.1-1.8.1-2.9.6-4.7-.6-.8-.3-2.9,0-3.7.2-.7,1.1-.4,1.1-.4,0,0,.6-1.1.6-1.2,0-1-.5-4.9-.6-6.7-.3-6-2.3-.7-2.5-.5-.7.6-3.9,0-4.5,1.9h0c.2,1.7.3,3.4,0,4.8-1.5,5.9-4.4,13.8-5.1,19.8-.2,1.6.8,3.1.5,4.5-.1.7-1.5,0-1.8.7-1,2.7,0,7.4-.7,9.8-.3,1.1-1.9,1.5-2.2,3.1-.3,1.9.4,4.5,0,6.4-.3,1.3-1.5,1.7-1.7,2.9-.4,2.1.5,5.6,0,7.5-.2.6-1.4.6-1.7,1.4-.5,1.4.2,3.9-.2,5.6-.3,1.4-1.9,2.6-2.1,4.4-.2,1.8.7,3.1.5,4.5-.2,1.2-1.4,1.6-1.7,2.5-.5,1.7.2,4-.1,5.7-.2,1.3-1.5,1.7-1.7,3-.2,1.4.8,3,.5,3.9-.2.8-1.4,1.2-1.7,2.5-.2,1.3.2,2.7,0,4.1-1.2,7-3.3,13.2-4.6,19.9-1.2,6.1-1.4,12.5-3.5,18.4,0,0,.3.9.9,1h0Z"/>
    </g>
  </g>
  <path class="st1" d="M21.3,221.8c.3-.2-.8-.8-1-1,0,.6,1.2,1.2,1,1Z"/>
  <path class="st1" d="M15.9,231l-.4-.3c0,.6,0,1.1.1,1.6,0-.4.2-.8.3-1.3h0Z"/>
  <path class="st1" d="M9,238.7c1.5-.5,2-1.1,2.2-1.9.3-.7.4-1.6,1.6-2.2l.8-.2c-.5-.3-1.1-.5-1.6-.8-1.3,1.9-1.5,3.9-3,5.1h0Z"/>
  <path class="st1" d="M1.6,244.4c1-.6.5.9.6-1.3,0,.1-.2.2-.3.3,0,.2-.1.5-.3,1h0Z"/>
  <path class="st1" d="M1.9,243.4c.2-1-1,.9,0,0h0Z"/>
  <path class="st1" d="M1.8,248.2l-.7-1.2c-.5.5-.6,1.8-1,1.5,0,.4.2.6.4.7,0,.1.3.1.4.1.3-.1.6-.5.9-1.1h0Z"/>
  <path class="st1" d="M3.5,248.9l-.4-.6c-.2.2-.2.4.4.6Z"/>
  <path class="st1" d="M2.4,247.1c.2.4.4.9.7,1.3.3-.3,1-.6-.3-.6.6-.1,0-.2-.4-.7Z"/>
  <path class="st1" d="M2.8,246.1c.6-.9,1.2-2,1.7-.9.3-2.4-1.5-1.7-1.7.9Z"/>
  <path class="st1" d="M11.4,238.8c.4-.3.9-.6,1.3-.8l-.4-.5c.1.1-.4.5-.8.8-.4.3-.6.6-.2.5h0Z"/>
  <path class="st1" d="M4.5,256.8c.5-.2.7-1,1.2-1.4-.4,0-.8-.2-1.2-.4,0,.6.6,1.4,0,1.8Z"/>
  <path class="st1" d="M5.6,255.4c.6.2,1.2.3,1.8.3-1-.7-1.5-.7-1.8-.3Z"/>
  <path class="st1" d="M5.8,248.2l-.8-.9c-.3-.3-.5-.6-.8-.9.4.8,1.1,1.5,1.6,2.2v-.4h0Z"/>
  <path class="st1" d="M8.6,259.2l-1.8.6c.9-.3,1.9-.6,2.9-.9l-1.1.3Z"/>
  <path class="st1" d="M12.5,260.1c-1.6.8-.3,1.7-1.6,2.1.7,0,1.5-.1,2.3-.3.4-.1.8-.2,1.2-.4.4-.1.8-.3,1.2-.5-.4.2-.7.2-1,.2s-.6,0-.8-.1c-.5-.1-.9-.5-1.3-.9h0Z"/>
  <path class="st1" d="M18.3,259.7c-.8.3-1.7.8-2.7,1.3.8-.3,1.7-.7,2.7-1.3Z"/>
  <path class="st1" d="M9.2,256.7c-.2.2-.7.9-.4,1.3.3-.4.6-.8.8-1.1-.1,0-.3,0-.4-.1h0Z"/>
  <path class="st1" d="M9.6,256.8h0c.2.1.4.1.5.2.2,0,.3,0,.4.1,0,0-.2,0-.3-.1-.1,0-.3,0-.5-.2h0Z"/>
  <path class="st1" d="M9.1,256.7h.1q0-.1-.1,0Z"/>
  <path class="st1" d="M5.7,252.4c1.1.5,3.2,1,2.8-.6-.6,0-.8.3-1.2.5-.3.2-.8.4-1.6.1Z"/>
  <path class="st1" d="M10,255.3c-.3-.2-.7-.4-1-.7-.3.2-.5.7-1.2.7h2.2Z"/>
  <path class="st1" d="M11,255.2c-.3,0-.6.1-1,.2.1,0,.2.1.4.2l.6-.4Z"/>
  <path class="st1" d="M15.8,258.4c.6-.3,1.2-.4,1.7-.5s1.1-.2,1.7-.3h-1.6c-.5-.1-.9-.2-1.4-.2-.5.4-1.6,1.1-.4,1.2h0v-.2Z"/>
  <path class="st1" d="M12.5,257.6h.2c0-.1,0-.2-.2,0Z"/>
  <path class="st1" d="M30.5,256s0-.1-.1-.2v.2h.2-.1Z"/>
  <path class="st1" d="M16.2,257c-.5-.3-1.2,0-2,.4.7,0,1.4-.1,2-.1.2-.2.3-.3,0-.3Z"/>
  <path class="st1" d="M22.1,258.6c-.3-.2-.6-.3-1-.5,0,0-.1,0-.2-.1,0,0,0,.1.1.2.3.3.8.6,1.1.3h0Z"/>
  <path class="st1" d="M12.6,258h-.1c0,.3,0,.2.1,0Z"/>
  <path class="st1" d="M12.6,258c.5-.1,1-.4,1.6-.6-.6,0-1,.1-1.5.2,0,.1,0,.3-.1.4h0Z"/>
  <path class="st1" d="M34,246.9c0,.6-.4,1.3-1.1,1.7-.6.4-1.4.5-1.9,0-.8.6-1.3,1.9-1.5,3.3-.2,1.4.1,2.9.8,3.9.1-.6.3-1.1,2.3-2.2-.3-.2-1.3-.5-2-.8s-.9-.8-.1-1.5c2.3-1,1.7.1,2.8.5-.5-.7.3-1.4,1-2.1.7-.8,1.3-1.6.9-2.7-.5.4-1,.7-1.5,1.1,0-.3.5-1,0-1.2h.3Z"/>
  <path class="st1" d="M26.3,256.3l-.9.3c.9,0,1.4.5,2.6,1.2,1.8-.9,2.1-1.4,2.3-1.8-1.5.2-2.9.4-4.3.5l.4-.2h-.1Z"/>
  <path class="st1" d="M21.5,257.2c.1-.1.2-.2.3-.3,1.5-1.3,3.3-2.2,3-3.4-.5.1-.9.2-1.2.4-1.1.5-1.4,1.2-2.7,1.8,2-.4,1.6-.2,1,.2s-1.5.9-.3,1.2c-.9.3-1.7.5-2.4.6.6.1,1.2.2,1.7.4h0c0-.2,0-.3,0-.2h.1c.1-.2.3-.4.5-.6h.1c.6,0,.2.2-.2.4-.1,0-.3.1-.4.1l-.2.2h.4c1.4-.5,2.8-.9,4.2-1.3-.8,0-1.8.1-3.7.5h-.2,0Z"/>
  <path class="st1" d="M12.2,251.1c0,.1-.1.1-.2.2.3,0,.5,0,.2-.2Z"/>
  <path class="st1" d="M12.6,251.8c-.4,0-1,.4-1.4,0-.2-.5.5-.4.9-.6-.7.1-2,0-1.5.9h.3c.6.7.5,2,.2,2.1.8-.9,1.2-1.5,1.6-2.4h-.1Z"/>
  <path class="st1" d="M16.4,254.1c.5,0,1-.2,1.5-.3l1.5-.4c0-.4-.2-.7-.2-1.1l-.6.7c-.6,0-1,0-1.3.3-.3.2-.6.6-1,.8h.1Z"/>
  <path class="st1" d="M30.8,256.6c-.2.5-.5,1-.7,1.5.9-.8,1.7-1.6,2.4-2.4-.5.3-1.1.6-1.7.9Z"/>
  <polygon class="st1" points="35.5 255.5 35.5 256.7 36.7 255.7 35.5 255.5"/>
  <path class="st1" d="M184.7,181.6l.4-.6c-.2.2-.4.4-.4.6Z"/>
  <path class="st1" d="M180.5,183.7l.2.6c0-.4,0-.6-.2-.6Z"/>
  <path class="st1" d="M106.1,233.8c1.3.7,2.9,1.9,2.3.7l-.8-1.1c-.6.5-1.1.5-1.6.4h0Z"/>
  <path class="st1" d="M148.5,207.2l-.4-.2v1.4c.1-.4.3-.8.5-1.2h-.1Z"/>
  <path class="st1" d="M146.8,202l1.5.2c-.4-.1-.9-.2-1.5-.2Z"/>
  <path class="st1" d="M206.5,167.2v-1.5c-1,.5-.2.9,0,1.5Z"/>
  <path class="st1" d="M66.1,246.1c.9.2,1.9,0,1.9.2l-.2-.2h0c0-.1,0-.1-.2-.1-.3-.1-.5-.2-.8-.2-.4-.1-.7,0-.6.6h0v-.3Z"/>
  <path class="st1" d="M189.4,194.7c.2-.4.3-.7.1-1-.3.4-.4.7-.1,1Z"/>
  <path class="st1" d="M69.3,245.9c0-.1-.2-.1-.4-.2-.4.3-.7.6-1,.6.4.5.9.7,1.4-.3h0Z"/>
  <path class="st1" d="M273,110.2s.1,0,.2,0q-.2,0-.2,0Z"/>
  <path class="st1" d="M267.2,88.8c.3,0,.8.2,1.2.4-.2-.2-.5-.3-1.2-.4Z"/>
  <path class="st1" d="M48.5,252.9c-.6.3,0,.2,0,0h0Z"/>
  <path class="st1" d="M44.2,248.8c0-.2,0-.4,0-.7v.7Z"/>
  <path class="st1" d="M73.9,237h0q-.2-.2,0,0Z"/>
  <path class="st1" d="M47.4,252.6c.3,0,.6.1.9.1-.2,0-.4-.1-.9-.1Z"/>
  <path class="st1" d="M47.7,253.2h-.6c0,.2,0,.3.6,0Z"/>
  <path class="st1" d="M49.4,252.6c-.3.1-.7.1-1,.1.2,0,.2.1.2.2.2,0,.4-.2.8-.3h0Z"/>
  <path class="st1" d="M244.1,146.8h.2c.1-.8,0-.6-.2,0Z"/>
  <path class="st1" d="M116.1,215.2h0Z"/>
  <path class="st1" d="M117.7,213.5c-.2,1.9-.8,1.9-1.6,1.8l2.1,3.2-.5-5h0Z"/>
  <path class="st1" d="M194.6,175.9l-1.9-.3c.8-2.6,2.3-2.6.2-3.4,1.7,3.7-5.1,3.2-3.4,6.9l-1.3-.3c.3-.1.2-.3.5-.4-2.7-.8,0,3.3-2.5,4-.9.1-1.8-.1-1.4-.8l-1.3,1.8c-.6.2-.8-.5-.2-.7l-2.6,1.7h0c0,.7-.5,2-.8,2.6-.9-.2.1-.6-.3-.9l-1.1,1.6c-1.1-.6-.3-2.2.8-2.6-3.2-2.9-.8,1.6-4.9,1l1.2-1.2c-2-1.6-2.7-.3-4.9-.8.7.5,4.9,1.6,3.7,3.3-.6,0-1.3.1-1.8,1.3-.7-1.3-1.4-.5-2.4,0l-.8-1.8c-.9,1.1-.4,1.9-.7,3-1.4.5-2.3-.7-3.2-1.7-2.2.8,2.5,1.4.2,3-2.1.2-2.9,1.5-4.5,3.6-1.5,0-.3-1.2-1-1.4l-.4,1.9c-.3.1-.4-.4-.5-.6-.6,1,.8,1.8-.4,2.9.5,2.1-4.3-1.3-5,1.7-.7-.3-.3-1.2-.8-1.8-1.8,2.6-1.6,2-2.7,4.9l-2.2-.3c1.9.7,1,3,.2,4.9.7.4,1.4.8,1.8.9l-1.8,2c-.4-.2-.5-.9-.4-1.8,0,.2-.2.4-.2.6-1.1-.3-1.2-1.5-1-2.7.4.2.9.5,1.3.7,0-1.3,0-2.7-.6-3.7,0,.3-.2.6-.5.8,0-.4,0-.6-.2-.8-.2-.1-.2.4-.4,1l-1.4-1.7.2.8h-3.5c-1.2,3.1-1.7,6.8-4.7,9.1.2-1.8-.9-2.4-1.6-4.1,1.7,1.4,2.3-1.9,4.2-2.4-1,.2-1.2-.7-1.1-1.1l-2.4,3c-.6-1.4-1.1-.7-2.2-.9,1.8,2.5-1.5,2.9-2.4,4.3-.5-.9-.6-2,1-2.4-2.6-1.3-.8,4.2-3.2,3.2.4-.2.6-.1.6-.7-.5,1.2-3,1.5-2.8.5l.4-.2c-2.6.8-7.7,3.3-7.1,5.8-.2-.3-.9-3-.9-3.5l-1.2,9.8c-.4-2.2-3.9-6.4-2.3-8.4-.7,0-1.6,0-2.6,1.2.5.1,2.2,2.5,1.7,2.9-2.5-1.6-1.6-.8-4.2-1.9.8.2,1.4,3.6.4,3.9,0-.5-1.3-3.1-1.1-3.6l-1.2,4.1c.4-.8-.9-2.7-1.8-3.4.5.5-2.1.8-2.7,1.3l1.3.3c-2.9.6-1,5.5-3.8,6.4,0-.8-.7-4.3-2.2-4.2,0,1.9,0,8.8-1.9,11l-.8-.8-1.5,1.8c.3-2.9,1.7-9.2,2.7-11.9-1.3-.4-.7-1-2.2-.3-.9-.7.3-1.6.8-1.9l-3.8.8c.9,1.8-2.1,2.9-1.3,4.4l3.2-3.4c.9,1.8-.3,6.2-3,6.8-.9-.5-.7-3.6-1-4.2,0,.8-2,2.1-2.4,1.7l.7-1.4c-1.7-.2-1.4,3.3-3.8,2.1-.6,0-2.6-1.8-2.3-.7,1.7,1.8,4.3,8.5,4.2,10.4-.3,0-3.9-1-4.9-1.8-1.6-1.4,0-4.6-1.2-5.8,0,.5-.2,1.4-.3,1.6-.8-.2-.3-1.7-1.6-1,.4,2-2.8.8,0,1.9-1.2,1-1.6,0-3.1.7.5.5.5,1.7.2,2.9s-.8,2.4-1.5,2.8c0-.5-.5-1.1-.8-1.4-2.9.4-4.5-.5-7.3.1-.3-.4-2-.6-1.6-1.6-.2.2-.3.6-.6.9,0,.1-.2.3-.4.4,0,.1-.3.2-.5.3-1.1-.6-.7-.8-.2-1.1.3-.2,1.2-.7,0-1.4.3,1.1-1.4,2.3-2.3,3.4.5.8,1.2.6,1.8.2.7-.5,1.2-1.3,1.9-1.9.2.6.2,1.3.2,1.9s0,1.4-.3,2c-.4,1.4-1.3,2.7-2.4,3.7-2,1.4-1.5-1.2-1.7-.7-4.2,1-2,5.4-6,4.8-1.8-1.1-1-3-1.7-4.1,1.6-1.1,3,.1,4.2-.3l-1.7-.2c.4-.7,1.4-1.5,2.2-1.2-1.6-1-6.9,2-10.4,1.6-.4.7-1.2,1.5-.6,2l.9-.5c1.3,1-1.4,2.3,0,2.5-1.1,1.3-2.3,3.1-4.4,2.9l-.8-1.7c.2.5,1.5.7,1.9,0-.6,1-3.5-1.7-3.8.9l1.7.9c-.6.6-1.2,1.5-1.9,2.2-.3.4-.7.7-1.1.9-.2.1-.4.2-.6.2h-.8c.2.2.3.3.5.4,0,.1.2.2.2.2h.2c.2,0,.4,0,1.2.8-1.7-2.3,4.5-1,2.1-3.2,1.9,2.1,2.4.5,4.6,2.1-.2-.6-.9-1,.7-1.1,0-.2,0-.4.2-.6h0q0-.1,0,0c-.4-.2-.8-.4-1-.7.3-1.6,2.7-2.1,3.2-3.1.9,0-.2.8.5,1.3l.8-1.4c.5,1.3,2.9,1.5,1.1,2.8l1.8-.5c1.3.4,2.8.2,3.6-.6.9,0,1.7-2.1,1.3-.9l2.5-1.7v.3c1.5-.4,2.8-1.4,4.1-2.2.3-.2.7-.4,1.1-.5.2,0,.4-.1.6-.2h.4c.3-.1.9,0,1.6.6.6-.5,1.4-1,3.1-.9l.5,1.1c.6-.3,1.7-.2,2.9-.2s2.4-.4,2.6-1c2.2,2.6,5.9-1.3,8.2-1.4l-.4-1.5c1.4-.4,2.7-1.3,4.2-2.5l-.6-1.2c1.1-1.6,4.2-.4,6.5-1.5,0,.5-.6.6-1.2.5,3.9,1.8,5.2-4.3,8.6-3.2.5-.7,1-.7,1.6-.6h0c0,.1.2.1.3.1.4.1.8.2,1.1.3-.4-.2-.7-.4-1-.4.5-.2,1.2-.7,1.8-1.3l.8,1.2h.2c.9,0,.3-1-.4-1.8.3-.4.5-.8.7-1.2,1.4,1.9,1.6-1.5,3.3.5,0-1.3,3.3-2.3,2.7-4.8.2.3.4.4,0,.5.9,0,1.8-.1,2.3-1.1l1,1.6.8-3c1.5.6,2.2,1,1.7,2.8,1.7-3.1,1.8-1.6,3.1-4.5l.3,1.1c.8-.4,1.4-2.4,2.2-1.6,1.3.7,3.5-.2,6-1.2s5.3-2.2,7.9-2.3c-2.3-2.8,2.7.5,1.8-2,.6.6,1.4.8,1,1.8,1.9-1.7,3.9-.4,4.5-3.1.6.6,0,1.3.5,1.7.1-.2.4-1,.9-.6.4.3,0,.8-.2,1.3,2.2-1.2,1.4-3.6.6-5.9,1.6.5,2.1,0,2.3-1.7.7.5,1.8.9.5,1.9.8-.3,5.3-1.3,4.6-3,.5.3,1.2-.4,1.3-.7,1.8-.7,2.1-.7,3.7-1.7h-.6c-.3-2.5,1.2-1.2,2.5-2.2v.2c4,0,1.1-1.4,5.1-1.2l-.8-1.2c-1.1-2.9,3.6.2,4.9-1.7l-1-.4c.5-1.4,4.7,2.4,5.9,2.2.3.1-.1.6-.4.9,3.4.3-.5-1.9,1.2-3.2.8.7.7,2.5,2.1,2,1,.4,2.3-4.9,5-4.1-.8-.5-1.5-1-.9-2,1.2-1,5.1.7,5.2-2.1.3.1.4.2.5.4.8-1.1,2.9-2.7,3-4.2,3.3,3.9,5.4-5.6,7.5-1.5l3.1-1.9v.5c1.2-.4,1.9-1,2.2-1.6.2-.3.3-.6.4-1,0-.2,0-.3.1-.5,0-.2.1-.4.2-.6.8,0,.6.5.6.8.6-.2,1.1-.4,1.6-.5.3,0,.4-.2.6-.4.2-.1.3-.3.5-.4.3-.3.6-.5.8-.8l.2-.2h.1c0-.2.1-.3.2-.4.1-.2.1-.3.2-.5v-1.4c0-.3,0-.6.1-.9.3.4.6.8.9,1.2,0-.1,0-.2.2-.2s.4-.2.7-.2c.6-.1,1.3-.2,2.2-.4,1.6-.4,3.5-1,4.6-2.6,0,.2.1.4,0,.8,1.2-1.8,3.8-2,5.8-2.6s3.6-1.4,2.6-4.1l1.4-2.5c-2.9,1.5-.9-2.2-2.5-2.2.9-.9,3.6-.5,2.5.6h-.4c1.1,2.6,3.9-1.6,4.9,0,5.2-3.9,11.1-6.5,15.8-10.2l-1.9-1.3,1.7-1.2c.8,0,1.7.9.5,1.7,1.4.4,1.3-2.4,1-2.8,2.8-1.2.8,2.7,1.5,2.2l.8-.9h-.4c.2-1.3-.4-2.1,1.1-3.2,1.1-.4,1.3.6,1.7.4.1.1.3,0,.6-.4l2.1-1.6-1.9-.6c.3-1.4,1.9-1.5-.3-2.2,3.3,1.1,8-5.6,9.5-5.6.4-2,1.6-3.1,3.2-4.3-.6,0-2.2-1.1-.7-2.2,1.2,1.7,2.1,1.4,3.1.8,1-.6,2-1.5,3.6-1.1-1.2-.1-.4-1.2.2-2.2.6-1.1,1-2.1-.6-2.2,1.2-1,1.2.9,2.7.6.5-1.9,1.9-3.4,3.4-5s3.1-3.4,3.9-5.8c-.5-.3-1.5,0-1.8-1.1,1.1-.4,2.3-.8,3.4-1.4,0-.5-.6-1-1-1.5s-.5-.9.7-1.6c-.3,0-.6.2-.8.2s-.4,0-.4-.5c1.4-2.6,2.2-5.6,1.7-8.5-.6-2.9-2.3-5.5-4.6-7.3-.6-.4-1.2-.8-1.8-1.2-.6-.4-1.3-.7-2-1l-1-.5-.4-.2-.3-.2c-.5-.3-.9-.6-1.4-.9-1.8-1.2-3.5-2.7-5.3-4.7.8,1.4,0,1.2-.9.9.5.5-.5,1.2-.6,1.9-.9-1.1-1.9-2.1-3-3.2-.6.8-1.7.6-2.7.4s-2.1-.3-2.4.6c.4,0,.9,0,1.3,0-1,1-.6,2.3-.2,3.7.4,1.4.8,3,.4,4.3,1-1.1,1.8.2,2.5,1.3.8,1.1,1.6,2.2,3.5,1,.3.8-.8.7-.8,1.4,1.1-.9,1.9-.8,3,.3l-.3.2c1,.4,1.8.8,2.5,1.2.2,0,.4.2.5.3l.2.2h.1c.2.3.3.5.5.6.3.4.5.7.7,1.1s.3.9.4,1.5c.4-.3.8-.6,1.2-.9.1.6-.3.9-.5,1.3,1.2-.2,1.1-.5,1-.9s-.3-.8,1-1.2c-1.1,1.2-.6,2-.6,3.1s-.4,2-2.1,1.9c0,.3.3.3.8.4.4,0,.9,0,.7.4h-.9c.4,0,.7.3,1,.5-.4.8-1.6.8-2.4.6.1-.2,0-.6,0-.8-.7.3-.8,1-.9,1.7,0,.7,0,1.3-.3,1.4.4-.3.7-.6,1-.9-.3,1.8-1.3,3.6-2.4,5.3-1.1,1.8-2.2,3.6-2.8,5.6l.7.2c-1,3.1-2.1,1.4-3.9,4.2v-.2c0,1-.3,1.8-1,2.3.1-1.1-2.2,0-2-1.4-1.6,3.2-.5,1.9-.5,5.2l-1.1-.5c0,1.3.4,1.7-.7,3.1.5-1.7-2-.5-1.6-2.5-4.4.6-2.5,5.5-6.1,3.9.8,3.4,3.5-.8,3.2.3,1.3.2.5,2.7-.6,3.2-.9.7-4.1-1.7-6.3.3.2-.2.1-.4.3-.6-1.3.1-.9,2.2-2.8,2.1.6,1.9-1.4,1,0,3l1.7-2.1c-.8,1.5,0,4.5-2.9,5.1-.1-.5,0-1.5.2-2.1-1,0-.8,1.3-1.8,1.2-1.3-2,2.2-2.5,2.3-4.9-1.2-.3-1.3,3.3-2.3.8,1.2,3.3-2.5,1.5-2.4,4.7l-.8-1.2c-.1.4-.2,1.3-.6,1.6l-.4-2.1c-.3,2.2-3.2.8-3.9,2.4,2.5-2,1.6.9,3.3.9-1.9,4-4.1-1.5-7.1,1.7.4-.5,2.3-.7,1.9.4-.8.3-2.1.5-2.9.2-2.1,1.9,1.2.9.8,2.4-1.8-.8-.7,1.4-1.4,2.6l-.9-1.2c-3.2,1.1,1,3-2.1,3.8v-2.4c-.1,0-1.1,1.3-1.1,1.3l-.7-1.5c-.7,2-1.3,2-2.9,2.5.9.6,1.3,2.3,0,3.2-1.3-.2-.3-1.4-1.9-.2,0-1-.3-2.2,1.2-1.6-.2-.4-.1-1-.3-1.4-1.4-.2-2.4,1.2-3,1.6.3-.1.6-.2.9-.1-.5,1.1-1,2.2-1.5,3.3-.7-.2-.6-.8-.5-1.3-.4.4-.4,1.2-1.1,1.8-.4-1.1-1.1-2.1-.3-3.2l-1.7,2.6c-.4-.3-1.9-.5-1.9-1.1-1.7.1-2.2,3.9-4.5,4v.4s0,.1-.1.2l-.4.4c-.8.4-1.6.6-2.4.9-.7.5-1.4.9-2.1,1.5-.4.3-.6.4-.8.6q-.2.2-.2.3v.9c-.3-.3-.5-.5-.7-.8-.1-.1-.2-.3-.3-.4l-.2-.2h-.3c-1.4,1.2,2.9,1.3.5,3.5-1.6,1.6-1.6-1.2-2.5-1.4-.5,1.5-1.2,4.3-3.8,3.7.4-.7,1-.6,1.5-1.1h0l-1.2-.2ZM174.4,187.5c.3-.5.6-1.7,1.3-1.1.3,1.7-.4,1.2-1.3,1.1ZM144.2,206.1c.1-.6.7-.6,1.4-.3-.3.3-.8.4-1.4.3ZM55,249.8h0c1.2.2.8.1,0,0ZM52.7,249.8c-.2.3,0,.4,0,.6,0-.4.5-.6,1-.6-.3-.3-.6-.5-1.1,0h0ZM255.4,150h-.6c.4-.9.5-.5.6,0Z"/>
  <path class="st1" d="M147,202.6c.2.2.4.4.5.6,0-.3,0-.6-.5-.6Z"/>
  <path class="st1" d="M206.4,167.4h0v-.3.3h0Z"/>
  <path class="st1" d="M80,229c.5,0,.8.2,1,.4,0-.3-.4-.6-1-.4Z"/>
  <path class="st1" d="M42.2,255.2l1.3-.7c-.6.2-1,0-1.3-.2,0,.3.5.7,0,.9Z"/>
  <path class="st1" d="M28.8,248.9c-.3.2-.4.1-.7.3l-.3.7c.9-.2,1.7-.9,1-1.1h0Z"/>
  <path class="st1" d="M39.8,250.9c-.4-1.1-1.1-.6-2-.1h.2c0,1.7,1,.9,1.8.2h0Z"/>
  <path class="st1" d="M37.6,250.8c-.2.1-.6.2-1,.3,0,.4,0,.4.3.2,0,0,.2-.1.3-.2,0,0,.2-.2.3-.2h.1Z"/>
  <path class="st1" d="M50.3,251.4c-.5-.2.2,1.6-.2,1.2,0,1.6,2.4-2.7.2-1.2Z"/>
  <polygon class="st1" points="38.2 247.1 38.8 248.5 39.1 247.2 38.2 247.1"/>
  <path class="st1" d="M45.7,246.4h-1.6c0,.2,0,.4-.3.6.9-.2,2-.2,1.8-.6h0Z"/>
  <path class="st1" d="M43.8,247c-.5.1-.9.2-1.1.6.2,0,.8-.3,1.1-.6Z"/>
  <polygon class="st1" points="40.1 246.2 40.6 246.4 41.6 246.3 40.1 246.2"/>
  <path class="st1" d="M61.2,241.7l1.4-1c0-.5-.5-.7-1-.3-.2.5-.8.9-.3,1.2h-.1Z"/>
  <path class="st1" d="M55.2,239.5c.5.2.7.5,1,.9l-.5-1.8-.5.9h0Z"/>
  <path class="st1" d="M59.6,237.5c0-.5,1.7-2.2-.2-1.4,0,.5-1.4,1.5.2,1.4Z"/>
  <polygon class="st1" points="84.1 233 83.7 233.2 84.7 236 84.1 233"/>
  <path class="st1" d="M101.9,218.7c-2.1,0,.2,1.9-1.7,1.7-.2.8,1.6.2,1.4.9.8-1.1,1.5-.9.3-2.6h0Z"/>
  <path class="st1" d="M101.6,221.3c0,.2-.3.4-.4.6.2-.3.3-.5.4-.6Z"/>
  <path class="st1" d="M262.3,85.7c-.5-.3-1-.6-1.5-.9.3.4.6.8.9,1.2,0,0,.6-.3.6-.3Z"/>
  <path class="st1" d="M259,87.5l-.2-2c-.4.6-.8,1.1-1.1,1.7.4,0,1.1-.2,1.3.3h0Z"/>
  <path class="st1" d="M169.6,185.6v.5c.5.4.8.3,1.4,0l-1.4-.5h0Z"/>
  <polygon class="st1" points="185.2 179.2 185 179.3 186.2 180.6 185.2 179.2"/>
  <path class="st1" d="M196.7,170.6c-.5.2-1,.9-1.5,1.1,1-.9,2.7.8,1.5-1.1Z"/>
  <g>
    <path class="st1" d="M116.8,240.2v-.4c0,0,0,.6,0,.4Z"/>
    <path class="st1" d="M114.4,239.3h.2c-.2-.1-.4-.2-.6-.3,0,.1.3.2.4.3h0Z"/>
    <path class="st1" d="M113.9,236c-.4,0-.4.5-.3.8,0,.4.2.7.2,1h0c.2.2.4.2.6.3-.3-.6-.6-1.6-.3-2.1h0Z"/>
    <path class="st1" d="M116,234.8c-.3,0,0-.4-.2.3h0s0-.1.2-.3h0Z"/>
    <path class="st1" d="M115.8,235.1c0,.3.3-.1,0,0h0Z"/>
    <path class="st1" d="M116.4,233.6v.6c.2,0,.4-.4.5-.1,0-.5,0-.5-.4-.4h0Z"/>
    <path class="st1" d="M116.3,232.9v.3-.3Z"/>
    <path class="st1" d="M116.1,233.8c0-.2,0-.4,0-.6,0,0-.3-.1,0,.3-.2-.1,0,0,0,.3h0Z"/>
    <path class="st1" d="M115.8,234c-.3.2-.5.4-.5-.1-.2.5,0,.7,0,.7s.3-.2.5-.6h0Z"/>
    <path class="st1" d="M113.3,235.7l-.3.4.2.4c0-.2.3-.7,0-.8h.1Z"/>
    <path class="st1" d="M118.7,231.1c0-.1-.4-.1-.6-.2v.4c0-.1.4-.4.6-.2h0Z"/>
    <path class="st1" d="M118.1,230.9c0-.2,0-.4.2-.7-.4.4-.4.6-.2.7Z"/>
    <path class="st1" d="M115.7,232.4v1.1c0-.4,0-.9.2-1.3v.2h-.2Z"/>
    <polygon class="st1" points="120.4 229.2 120.4 229.7 120.4 228.9 120.4 229.2"/>
    <path class="st1" d="M121.4,227.9c0,.4.6,0,.6.4.2-.4.3-.8.4-1.2-.2.4-.4.6-.9.9h0Z"/>
    <path class="st1" d="M122.5,226.4c0,.2,0,.4-.2.6,0-.2,0-.4.2-.6Z"/>
    <path class="st1" d="M119.1,229.4s.3.1.7-.1h-.5s0,0-.2.1h0Z"/>
    <path class="st1" d="M119.3,229.3h0c.2-.2.3-.4.4-.4,0,0-.2.2-.4.4Z"/>
    <path class="st1" d="M119.1,229.5h0Z"/>
    <path class="st1" d="M116.9,231.3c0-.4.3-1.2-.4-.9,0,.4.5.2.4.9Z"/>
    <path class="st1" d="M118.5,229.4l-.5.5s.3,0,.3.3l.3-.8h-.1Z"/>
    <polygon class="st1" points="118.6 229.1 118.5 229.4 118.7 229.2 118.6 229.1"/>
    <path class="st1" d="M121.4,227.1c0-.4.3-.6.5-.9-.3.2-.6.5-.9.8,0,.1,0,.4.4,0h0Z"/>
    <path class="st1" d="M120.3,228.1h0Z"/>
    <polygon class="st1" points="124.4 223.4 124.3 223.4 124.3 223.5 124.4 223.4"/>
    <path class="st1" d="M120.9,227c-.3.2-.3.4-.3.6,0-.2.2-.4.4-.6h0Z"/>
    <path class="st1" d="M123,225.5c-.2,0-.3.1-.5.2.2,0,.6-.1.5-.2Z"/>
    <path class="st1" d="M120.5,228h0c0,0,0,0,0,0Z"/>
    <path class="st1" d="M120.5,228v-.5c0,.2-.2.3-.2.5h.2Z"/>
    <path class="st1" d="M123.1,220.7c.2.3,0,1.1-.8,1.4-.2.7,1,1.3,1.9,1.3,0-.1-.2-.2,0-.9-.3,0-1.4.8-1.3.1.5-.8.6-.5,1.1-.6-.6,0,.3-1.3-.4-1.7l-.4.8s0-.4-.2-.3h.1Z"/>
    <path class="st1" d="M123.3,224.4l-.2.2c.3-.2.5-.3,1.1-.4.2-.5,0-.6,0-.8l-1,1h0c0-.1,0,0,0,0Z"/>
    <path class="st1" d="M122.3,225.6c-.2-.4.2-1.1-.5-1.1-.5.6,0,.7-.3,1.2.8-1.1,0,.4.8-.1,0,.2-.3.4-.4.6.2-.1.4-.3.6-.4h0s0,0,0,0h0c.3-.3,0-.1,0,0h0l.7-1.1c-.2.2-.5.4-.9.9h0Z"/>
    <path class="st1" d="M116.2,229.3h0q0-.1,0,0Z"/>
    <path class="st1" d="M116.8,229c0,.1,0,.3-.2.5-.3.1-.2-.1-.3-.2,0,.2-.2.7.4.4h0c.5-.4,1.3-.6,1.3-.5-.4-.1-.7-.2-1.2-.2h0Z"/>
    <path class="st1" d="M119.5,227.2l.6-1-.7.2h.2c-.5.5-.2.6,0,.8h0Z"/>
    <polygon class="st1" points="124.6 223.5 124.8 223.9 124.8 223 124.6 223.5"/>
    <polygon class="st1" points="125.6 222.4 125.8 222.7 125.9 222.3 125.6 222.4"/>
    <path class="st1" d="M182.9,162.3v-.3.3Z"/>
    <path class="st1" d="M181.3,164v.2c.1-.1,0-.2,0-.2Z"/>
    <path class="st1" d="M151.9,197.9c.6,0,1.4,0,1.1-.3l-.4-.2c-.2.3-.4.4-.7.5h0Z"/>
    <path class="st1" d="M168.9,179.5h-.2v.5c0-.2.1-.3.2-.5h0Z"/>
    <path class="st1" d="M168,177.9l.7-.2c-.2,0-.4,0-.7.2Z"/>
    <path class="st1" d="M189.5,151.6l-.2-.5c-.3.5,0,.4.2.5Z"/>
    <path class="st1" d="M136.1,211.7c.4-.2.7-.3.9-.5-.5.2-1.1.2-.9.5Z"/>
    <path class="st1" d="M185.8,166v-.4c0,.2-.1.4,0,.4Z"/>
    <path class="st1" d="M137.9,210.4h-.2c-.2.3-.4.5-.7.7.4-.1.8-.3.9-.8h0Z"/>
    <path class="st1" d="M195,106.2h0q0,0,0,0Z"/>
    <path class="st1" d="M197.6,91.7c0,0,0,.4.1.6,0,0,0-.3-.1-.6Z"/>
    <path class="st1" d="M129.8,218.3c-.2.2,0,0,0,0h0Z"/>
    <path class="st1" d="M127.5,218.2v-.2.2Z"/>
    <path class="st1" d="M138.4,206.3h0q-.1,0,0,0Z"/>
    <path class="st1" d="M129.3,218.5c.1,0,.2-.1.4-.2,0,0-.2,0-.4.2Z"/>
    <path class="st1" d="M129.5,218.6s-.2.1-.2.2l.2-.2Z"/>
    <path class="st1" d="M130.1,218c-.1.1-.2.2-.4.3h.1s.1-.2.3-.3h0Z"/>
    <path class="st1" d="M196.6,131.4h0c-.1-.3-.1-.2,0,0Z"/>
    <path class="st1" d="M155.2,189.1h0Z"/>
    <path class="st1" d="M155.8,188.1c0,.7-.3.9-.6,1l1.1.7-.5-1.7Z"/>
    <path class="st1" d="M186.2,157.8l-.8.4c0-1.1.6-1.5-.3-1.2,1.1.9-1.6,2.4-.6,3.3l-.5.2c.1-.1,0-.2.1-.3-1.1.4.3,1.2-.6,2.1-.4.3-.7.4-.6,0l-.4,1c-.2.2-.3,0-.1-.2l-.9,1.2h0c0,.3,0,.9-.1,1.1-.4.2,0-.2-.2-.3l-.3.8c-.5,0-.3-.7.1-1.1-1.5-.3-.2.8-1.9,1.4l.4-.7c-.9-.1-1.1.5-2.1.8.3,0,2.1-.5,1.7.4-.2.1-.5.3-.7.9-.4-.3-.6.1-1,.6l-.4-.5c-.3.6,0,.8-.1,1.3-.6.5-1,.2-1.4,0-.9.8,1.1,0,.2,1.1-.9.5-1.2,1.2-1.7,2.3-.6.3-.2-.4-.5-.3v.8c-.2,0-.3,0-.3-.1-.2.5.4.5,0,1.2.3.7-1.9.4-2.1,1.6-.3,0-.2-.4-.4-.5-.6,1.3-.6,1.1-.9,2.4l-1,.3c.9-.1.6.9.3,1.8h.8l-.7,1.1c-.2,0-.2-.2-.3-.6v.3c-.5.1-.6-.3-.6-.8h.6c0-.5-.1-1-.4-1.2,0,.1,0,.3-.2.4,0-.1,0-.2-.1-.3,0,0,0,.2-.1.4l-.7-.3v.3c.1,0-1.4.8-1.4.8-.4,1.3-.4,2.8-1.6,4.2,0-.7-.5-.7-.9-1.2.8.1.9-1.2,1.7-1.7-.4.3-.5,0-.5-.2l-.9,1.6c-.3-.4-.5,0-1,.1.9.5-.5,1.4-.8,2.1-.2-.2-.4-.6.3-1.1-1.2,0-.1,1.7-1.3,1.8.1-.1.3-.2.2-.4-.2.6-1.2,1.1-1.2.8h.1c-1.1.7-3.2,2.6-2.8,3.4,0,0-.5-.9-.6-1.1v3.8c-.3-.7-2.1-1.5-1.5-2.5-.3.1-.7.3-1.1,1,.2,0,1.1.4.9.7-1.2,0-.7,0-2,.2.4-.1.8,1,.4,1.3,0-.2-.8-.8-.7-1.1l-.3,1.7c.1-.4-.6-.8-1-.8.2,0-.9.7-1.1,1.1l.6-.2c-1.2.9-.1,2.2-1.3,3.1,0-.3-.6-1.4-1.3-1,.1.7.6,3.1,0,4.3h-.4l-.5.9c0-1.1,0-3.6.3-4.8-.6.2-.4-.2-1,.4-.4,0,0-.7.2-.8l-1.6,1.1c.5.4-.7,1.5-.3,1.9l1.2-1.9c.5.4.3,2.2-.8,3.1-.4,0-.6-1.1-.8-1.2,0,.3-.7,1.2-.9,1.2l.2-.7c-.8.3-.4,1.5-1.5,1.6-.3.2-1.3,0-1.1.3.9.2,2.5,1.9,2.7,2.6-.1,0-1.8.6-2.3.5-.8-.1-.4-1.6-1-1.7.1.1,0,.5,0,.6-.4.1-.3-.5-.8,0,.4.6-1.1.9.1.7-.4.6-.7.4-1.3,1,.5.1.4,1.6,0,2.2,0-.2-.4-.2-.5-.2-1.1.9-1.9,1.2-2.9,2.2-.2,0-.8.3-.8-.1,0,.2,0,.5-.3.8-1,.1.6-.7-.3-.8.2.3-.4,1.1-.7,1.7.6.3,1.1-.9,1.4-1.5.6.6.4,2-.4,3.2-.7.9-.7,0-.8.2-1.6,1.4-.3,2.3-2,3.1-.9.1-.8-.8-1.1-.9.5-.8,1.3-.7,1.7-1.2l-.7.4c0-.3.4-.9.8-1-.8,0-2.7,2.4-4.1,3.3,0,.3-.3.8,0,.8l.3-.4c.6,0-.3,1.1.3.8-.3.7-.5,1.6-1.3,2.1l-.6-.3c0,.1.7-.2.8-.5,0,.5-1.6.5-1.4,1.4l.8-.2c-.3.7-.4,1.8-1.1,2.3.7.1,0-.2,1-.1-1-.2,1.6-1.6.3-1.6,1,.1,1-.6,2.1-.6-.2-.1-.5,0,.1-.5v-.2h-.5c0-.6.8-1.4.9-1.8.4-.2,0,.3.4.3l.2-.7c.4.3,1.3-.3.8.6l.7-.6c.6-.2,1.1-.6,1.4-1.1.4-.2.4-1.1.4-.6l.9-1.2h0c1.1-.9,1.6-2.5,3.4-3,.3-.4.6-.8,1.2-1.3l.4.2c.4-.5,1.6-.9,1.6-1.4,1.2.3,2.4-1.8,3.3-2.4l-.3-.4c.6-.5,1-1.1,1.6-1.8l-.3-.3c.4-.8,1.8-1.1,2.7-2,0,.2-.2.4-.5.4,1.8-.2,1.9-2.6,3.4-3,.1-.4.4-.5.6-.5h.1c.2,0,.3,0,.5-.1h-.5c.2-.2.5-.5.7-.8l.4.3h0c.4-.1,0-.4-.3-.5.1-.2.2-.4.2-.6.7.4.6-.9,1.5-.5,0-.5,1.3-1.5.9-2.3,0,0,.2,0,0,.2.4-.2.8-.4.9-.9l.5.3.2-1.2c.7-.1,1,0,.9.6.6-1.5.7-.9,1.1-2.3l.2.3c.3-.3.5-1.1.9-1.1,1.2,0,3.6-3,5.9-4.1-1.1-.6,1.2-.4.7-1.1.3.1.6,0,.5.4.8-1,1.7-.9,1.8-2.1.3.1,0,.5.3.5,0-.1.1-.4.3-.4s0,.3,0,.5c.9-.9.4-1.6,0-2.3.7-.1.9-.4.9-1.1.3,0,.8,0,.3.6.4-.3,2.2-1.6,1.9-2.1.2,0,.5-.4.5-.5.8-.6.9-.7,1.5-1.4h-.3c-.2-.7.5-.6,1-1.2h0c1.7-.8.4-.7,2.1-1.5l-.4-.3c-.6-.9,1.6-.7,2-1.7h-.5c.1-.6,2.1,0,2.6-.4.1,0,0,.2-.1.4,1.5-.6-.3-.6.4-1.5.4,0,.4.8,1,.3.5,0,.7-2.3,1.9-2.7-.4,0-.7,0-.5-.5.5-.6,2.2-1,2-2.1h.2c.2-.6,1-1.8.9-2.3,1.7.6,1.7-3.5,2.9-2.6.4-.5.7-1.1,1-1.6h.1c.8-.8.7-1.4.6-2,.2-.2.2,0,.3.1,1.2-1.4,1.2-1.6,1.2-3.2h.5c0-.4,1.9-1.9,2-3.8,0,0,.1.1.1.3.1-1,.9-2,1.4-2.9s.8-1.7,0-2.3v-1.4c-.7,1.5-.7-.5-1.2.1,0-.6,1-1.4.9-.7h-.1c.8.6.9-1.8,1.5-1.6.8-3.2,1.8-6.2,2.2-9.3l-.8.3.2-1.1c.2-.3.6-.3.5.4.5-.4-.2-1.3-.4-1.3.4-1.5.8.7.9.2v-.6h-.1c-.3-.4-.6-.5-.4-1.4.2-.6.5-.3.5-.5v-1.6c.1,0-.5.5-.5.5-.3-.6,0-1.2-.6-.7,1.1-.9.5-5,.8-5.5-.4-.8-.4-1.6-.4-2.7-.1.2-.8.4-.7-.4,1.4.3.5-1.6,1.4-2.4-.6.7-.3-2.5-1.1-1.4,0-.7.5,0,.8-.7-.6-1.7,0-3.8-.3-5.9-.2,0-.4.4-.7,0l.8-1.2c-.1-.4-1.1-.3-.5-1.1-.1,0-.3.3-.4,0,.4-4.2-1.7-8.3-.7-12.7-.3.6-.3.2-.4-.2,0,.3-.4,0-.7.2.1-.6.2-1.3.3-2-.4,0-.5-.6-.7-1.1s-.5-1-.8-.9c.1.2.3.4.4.6-.5-.2-.8.2-1,.7-.3.5-.6,1-1.1,1.1.5.2.3.8.2,1.4-.2.6-.3,1.3.4,1.9-.1.3-.3-.2-.5,0,.4.3.6.7.5,1.5h-.1c.4,2.1.1,3,.1,5.5l.4-.2c0,.5-.1.7-.2.9.8.5-.1-1.5.7-1-.9.8.4,3.7-.6,4.2,0,.8.5-.3.6.5l-.3.2.4.2c0,.5-.4.8-.6.9,0,0-.1-.3-.1-.5-.3.7.3,1.9.2,2.1v-.8c.6,2.1.4,4.8,1.2,6.9l.2-.2c.5,1.6-.2,1.3.1,3.1h0c.2.3.4.8.4,1.2-.3-.4-.5.8-.8.3.5,1.7.4.8,1.2,2l-.4.3c.3.4.5.4.6,1.3-.3-.7-.6.6-1-.2-.8,1.8.8,2.8-.4,3.6,1,.9.6-1.6.8-1.1.3-.4.8.7.6,1.3,0,.6-1.3.9-1.4,2.4v-.3c-.3.5.3,1.1-.2,1.7.6.4-.1.9.7,1.1v-1.4c0,.8.9,1.6.4,2.8-.1-.1-.3-.5-.4-.8-.3.3,0,.7-.2,1.1-.8-.2,0-1.6-.5-2.5-.4.4.4,1.6-.4,1.1,1,.7-.3,1.4.4,2.5h-.5s.2.4.2.7l-.5-.6c.4.9-.7,1.4-.5,2.2.2-1.6.6-.3,1.1-.9.3,2.1-1.4.9-1.6,3.1,0-.3.5-1,.6-.5-.2.4-.5.9-.8,1.1-.2,1.4.5-.1.7.6-.7.4,0,.8.1,1.4h-.5c-.7,1.4.9.6.1,1.9l-.5-.8v.8l-.5-.3c.1.9,0,1.1-.4,1.9.4,0,.8.4.6,1.1-.4.4-.4-.4-.6.6-.2-.3-.5-.7,0-1-.1,0-.2-.3-.4-.4-.5.4-.5,1.2-.6,1.6,0-.1.1-.3.2-.3v1.6c-.1.2-.2,0-.3-.3v1c-.3-.2-.7-.4-.6-1,0,.5,0,1-.1,1.5-.2,0-.7.5-.8.3-.5.6,0,2.1-.8,2.9v.4c-.5.9-1.4,1.3-1.5,2.6l-.9.2c-.3.9,1.2-.3.6,1.1-.4,1-.7,0-1.1.2,0,.6,0,1.8-1,2.3,0-.4.3-.5.4-.8h-.3ZM179.1,166.8c0-.2.2-.8.5-.7.2.6-.1.5-.5.7ZM167,180c0-.2.3-.4.6-.4-.1.2-.3.3-.6.4ZM131.9,215.6h0c.5-.2.3-.2,0,0ZM131,216.2c0,.1,0,.2.1.2,0-.1.1-.3.3-.5-.1,0-.3,0-.4.3h0ZM200.1,128.3v.2c-.2-.5-.1-.3,0-.2Z"/>
    <path class="st1" d="M168.1,178.1c.1,0,.2,0,.2.1,0-.1,0-.2-.2-.1Z"/>
    <path class="st1" d="M189.5,151.7h0c0-.1,0,0,0,0Z"/>
    <path class="st1" d="M140.3,202.1c.2,0,.4-.1.5,0,0-.1-.2-.1-.5,0Z"/>
    <path class="st1" d="M127.7,220.7l.4-.6c-.2.2-.4.3-.5.3,0,0,.3,0,.2.2h0Z"/>
    <path class="st1" d="M121.5,223c0,.1,0,.2-.2.3h.2c.3-.2.3-.5,0-.3h0Z"/>
    <path class="st1" d="M126.1,220.1c-.3-.2-.5.2-.8.6h0c.3.5.5,0,.7-.5h.1Z"/>
    <path class="st1" d="M125.2,220.7c0,.1-.2.2-.3.3,0,.2.2,0,.3-.3Z"/>
    <path class="st1" d="M130.3,217.4c-.2,0,.3.5,0,.4.2.5.6-1.5,0-.4Z"/>
    <polygon class="st1" points="124.9 219.4 125.4 219.6 125.3 219.2 124.9 219.4"/>
    <path class="st1" d="M127.8,217l-.6.4v.3c.3-.3.8-.6.7-.7h0Z"/>
    <path class="st1" d="M127.1,217.7c-.2.2-.3.3-.4.5,0-.1.3-.3.4-.5Z"/>
    <polygon class="st1" points="125.5 218.6 125.7 218.5 126.1 218.1 125.5 218.6"/>
    <path class="st1" d="M133.7,211.4l.5-.7c0-.2-.3-.1-.5.2,0,.2-.2.5,0,.5h0Z"/>
    <path class="st1" d="M130.9,212.1h.5l-.4-.5v.4h-.1Z"/>
    <path class="st1" d="M132.6,210.4c0-.2.5-1.2-.2-.4,0,.2-.4.9.2.4Z"/>
    <polygon class="st1" points="142.4 202.5 142.2 202.6 142.9 203.4 142.4 202.5"/>
    <path class="st1" d="M149.1,193.4c-.9.5.2.6-.6,1,0,.3.7-.3.7,0,.3-.6.6-.7,0-1h0Z"/>
    <path class="st1" d="M149.2,194.4s0,.2-.1.3c0-.2.1-.2.1-.3Z"/>
    <path class="st1" d="M197.4,88.9c0-.3,0-.6-.2-.9v.7l.2.2h0Z"/>
    <path class="st1" d="M196,87.8c.1-.2.3-.3.4-.5h-.8c.1,0,.4.4.4.6h0Z"/>
    <path class="st1" d="M176.9,167.1h0c.2.2.3,0,.5-.1h-.6.1Z"/>
    <polygon class="st1" points="182.9 161.3 182.8 161.4 183.4 161.5 182.9 161.3"/>
    <path class="st1" d="M186.3,155.4c-.2.2-.2.6-.4.8.2-.6,1.1-.4.4-.8Z"/>
  </g>
</svg>