<svg class=" " viewBox="0 0 1600 800"><path d="M1201.981,581.818C1209.29,588.438,1218.532,592.63,1232.438,597.98C1258.595,608.043,1313.048,623.379,1350.754,627.771C1384.285,631.677,1422.565,630.354,1447.236,626.347C1463.192,623.756,1476.177,619.995,1485.705,614.141C1492.843,609.756,1499.811,603.869,1501.572,597.98C1503.074,592.957,1501.398,586.707,1498.38,581.818C1494.562,575.633,1487.73,570.557,1477.543,565.657C1457.968,556.241,1417.137,546.95,1382.915,542.798C1343.574,538.025,1285.864,539.712,1254.271,542.227C1235.65,543.71,1221.639,544.805,1210.172,549.495C1201.643,552.983,1191.003,558.107,1189.95,563.722C1188.962,568.987,1196.178,576.563,1201.981,581.818" stroke="#71717a" stroke-width="2" fill="none" stroke-linecap="round" stroke-miterlimit="4"></path><path d="M961.31,541.414C983.071,557.623,1036.157,575.256,1075.398,589.899C1115.804,604.977,1159.083,619.332,1200.469,630.303C1240.123,640.815,1281.035,649.897,1318.593,654.962C1352.209,659.495,1384.401,661.548,1415.075,660.981C1443.119,660.463,1470.53,658.559,1495.477,652.976C1518.328,647.863,1544.081,641.44,1559.365,630.303C1571.204,621.676,1582.377,608.421,1584.059,597.98C1585.395,589.689,1581.319,581.361,1575.676,573.737C1567.838,563.149,1553.656,553.072,1535.678,544.617C1507.164,531.205,1466.969,521.236,1415.075,513.827C1324.63,500.914,1113.853,499.925,1037.186,501.101C1003.611,501.616,982.209,501.46,964.824,505.763C954.329,508.36,941.973,511.111,940.704,516.561C939.301,522.585,950.204,533.142,961.31,541.414" stroke="#71717a" stroke-width="2" fill="none" stroke-linecap="round" stroke-miterlimit="4"></path><path d="M4,651.515C4,651.515,24.376,638.535,30.226,630.303C35.338,623.109,39.12,613.3,38.936,606.061C38.784,600.082,36.192,595.168,32.161,589.847C26.397,582.238,4,567.535,4,567.535" stroke="#71717a" stroke-width="2" fill="none" stroke-linecap="round" stroke-miterlimit="4"></path><path d="M333.706,4L361.809,4.111" stroke="#71717a" stroke-width="2" fill="none" stroke-linecap="round" stroke-miterlimit="4"></path><path d="M1596,651.405C1596,651.405,1557.479,666.268,1535.678,671.252C1511.041,676.883,1482.777,680.045,1455.276,681.893C1426.559,683.823,1396.909,683.749,1366.834,682.124C1335.326,680.422,1314.616,678.892,1270.352,671.414C1169.589,654.393,852.124,584.381,779.899,559.604C758.45,552.245,749.451,549.953,739.698,540.834C730.884,532.591,722.629,519.83,722.196,509.091C721.767,498.471,729.636,485.449,736.755,476.768C743.651,468.359,753.453,462.676,763.819,457.433C775.509,451.521,788.844,447.217,804.02,444.281C822.755,440.655,839.797,439.323,868.342,440.023C925.559,441.425,1034.988,461.304,1125.628,469.771C1226.759,479.218,1375.979,482.921,1447.236,492.702C1483.186,497.637,1502.292,501.283,1527.638,509.14C1551.74,516.61,1596,537.999,1596,537.999" stroke="#71717a" stroke-width="2" fill="none" stroke-linecap="round" stroke-miterlimit="4"></path><path d="M4,681.056C4,681.056,58.75,656.796,74.072,646.465C82.614,640.705,87.63,636.879,92.205,630.303C96.941,623.496,101.464,613.361,101.687,606.061C101.868,600.164,99.872,595.347,96.481,589.899C91.714,582.239,83.154,573.894,72.362,566.56C56.71,555.924,8.04,537.468,8.04,537.468" stroke="#71717a" stroke-width="2" fill="none" stroke-linecap="round" stroke-miterlimit="4"></path><path d="M216.961,4C216.961,4,220.871,23.691,225.912,32.323C231.321,41.585,240.091,50.761,249.246,57.317C258.545,63.976,269.822,68.611,281.407,71.803C293.815,75.221,305.989,77.244,321.608,76.423C343.893,75.253,375.354,69.222,402.01,58.495C432.101,46.385,491.733,4,491.733,4" stroke="#71717a" stroke-width="2" fill="none" stroke-linecap="round" stroke-miterlimit="4"></path><path d="M1596,680.645C1596,680.645,1499.086,699.542,1447.236,701.82C1390.941,704.293,1337.706,700.869,1270.352,692.333C1178.692,680.717,1051.46,642.05,948.744,627.633C855.773,614.585,733.482,620.671,680.859,606.061C657.169,599.483,643.183,593.535,632.086,581.818C622.112,571.287,615.06,556.097,614.671,541.414C614.215,524.224,624.638,501.757,635.575,484.848C647.109,467.018,665.617,450.076,683.417,437.852C700.55,426.087,719.002,418.416,739.964,412.121C763.917,404.928,793.295,400.803,820.101,399.484C846.809,398.171,866.456,400.265,900.503,404.162C960.833,411.065,1061.114,435.737,1149.749,446.887C1249.867,459.481,1389.521,459.309,1471.357,472.835C1523.011,481.372,1596,504.275,1596,504.275" stroke="#71717a" stroke-width="2" fill="none" stroke-linecap="round" stroke-miterlimit="4"></path><path d="M4,702.954C4,702.954,99.713,669.689,126.877,654.545C141.919,646.16,152.082,639.447,159.312,630.303C165.153,622.916,169.808,614.145,169.824,606.061C169.84,597.983,165.103,589.253,159.426,581.818C152.529,572.784,143.365,565.668,128.945,557.576C102.726,542.861,8.04,513.315,8.04,513.315" stroke="#71717a" stroke-width="2" fill="none" stroke-linecap="round" stroke-miterlimit="4"></path><path d="M165.173,4C165.173,4,169.804,37.108,176.884,51.262C183.956,65.4,195.397,79.024,207.608,88.889C219.59,98.569,233.878,105.272,249.246,110.196C266.196,115.626,286.739,118.079,305.528,118.536C324.26,118.992,342.646,116.997,361.809,112.978C382.768,108.583,401.825,103.823,426.131,92.02C463.326,73.959,557.846,4,557.846,4" stroke="#71717a" stroke-width="2" fill="none" stroke-linecap="round" stroke-miterlimit="4"></path><path d="M1596,703.999C1596,703.999,1525.239,715.299,1487.437,717.848C1446.453,720.61,1401.623,720.795,1358.794,718.844C1315.861,716.888,1281.458,713.052,1230.151,706.094C1152.813,695.606,1038.199,663.236,940.704,656.174C842.568,649.066,698.978,668.893,643.216,663.964C621.096,662.009,612.082,659.384,597.345,654.545C582.601,649.704,567.297,643.283,554.774,634.92C542.844,626.953,529.57,616.199,523.524,606.061C518.887,598.285,517.591,590.511,517.326,581.818C517.021,571.849,519.749,559.982,523.518,549.495C527.505,538.399,532.205,529.97,541.205,517.172C557.273,494.323,591.019,451.415,619.095,429.276C643.401,410.111,669.087,398.054,696.762,387.879C725.26,377.401,756.321,371.009,787.94,367.975C821.407,364.764,850.437,365.595,892.462,370.441C958.047,378.005,1051.898,409.419,1141.709,422.538C1245.317,437.673,1396.319,439.204,1479.397,450.988C1528.611,457.969,1596,474.354,1596,474.354" stroke="#71717a" stroke-width="2" fill="none" stroke-linecap="round" stroke-miterlimit="4"></path><path d="M4,722.035C4,722.035,166.757,673.073,210.143,654.545C231.27,645.523,243.954,639.61,255.506,630.303C264.594,622.981,275.508,614.379,276.143,606.061C276.744,598.192,269.26,589.474,261.187,581.818C248.767,570.038,224.172,559.574,202.002,549.495C175.641,537.511,143.838,525.915,112.563,516.493C79.369,506.492,8.04,491.824,8.04,491.824" stroke="#71717a" stroke-width="2" fill="none" stroke-linecap="round" stroke-miterlimit="4"></path><path d="M125.165,4C125.165,4,131.463,53.101,140.908,72.727C149.459,90.498,161.931,105.99,176.884,117.966C192.44,130.425,212.677,139.314,233.166,145.266C255.274,151.688,281.414,153.66,305.528,153.538C329.656,153.415,354.048,150.009,377.889,144.518C402.302,138.895,428.121,130.013,450.251,119.835C470.713,110.425,485.326,101.006,506.533,86.604C536.984,65.924,613.015,4,613.015,4" stroke="#71717a" stroke-width="2" fill="none" stroke-linecap="round" stroke-miterlimit="4"></path><path d="M1596,725.054C1596,725.054,1514.498,734.433,1471.357,736.085C1424.959,737.861,1386.563,738.471,1326.633,734.386C1227.374,727.622,1017.183,687.966,932.663,685.137C892.74,683.801,877.599,686.584,844.221,690.224C800.108,695.035,733.085,711.375,691.457,714.846C662.99,717.219,642.398,717.525,619.095,715.322C596.914,713.225,575.523,708.756,554.774,702.612C534.255,696.536,516.135,689.178,495.246,678.788C469.964,666.213,432.862,646.626,414.803,630.303C402.959,619.598,391.065,608.926,390.569,597.98C390.089,587.367,399.103,579.487,410.514,565.657C439.118,530.988,536.678,438.419,586.109,404.04C616.661,382.791,638.432,373.365,667.337,362.635C697.505,351.437,729.603,343.288,763.819,339.08C801.524,334.442,835.934,333.098,884.422,338.441C960.502,346.825,1073.074,389.407,1173.869,404.631C1281.513,420.888,1436.622,421.401,1511.558,430.001C1549.199,434.321,1596,443.069,1596,443.069" stroke="#71717a" stroke-width="2" fill="none" stroke-linecap="round" stroke-miterlimit="4"></path><path d="M4,739.99C4,739.99,145.401,701.705,201.005,691.339C241.072,683.868,272.978,677.887,305.528,678.041C334.093,678.176,354.623,681.699,385.93,689.043C432.317,699.925,507.069,734.571,554.774,745.906C588.555,753.932,614.374,757.116,643.216,758.521C670.592,759.855,692.737,758.854,723.618,754.957C766.625,749.53,833.404,729.346,876.382,722.916C907.291,718.291,920.235,715.514,956.784,715.636C1035.197,715.897,1231.664,746.465,1326.633,751.613C1385.902,754.826,1424.938,754.473,1471.357,753.255C1514.477,752.124,1596,745.293,1596,745.293" stroke="#71717a" stroke-width="2" fill="none" stroke-linecap="round" stroke-miterlimit="4"></path><path d="M1596,404.347C1596,404.347,1308.077,398.677,1222.111,388.874C1176.281,383.648,1157.242,378.648,1117.588,369.235C1063.836,356.475,987.594,325.724,929.8,315.152C881.894,306.388,836.891,303.118,795.98,304.228C761.139,305.174,730.595,309.92,699.497,317.402C668.994,324.74,638.509,335.741,611.055,348.338C585.127,360.235,565.162,372.197,538.693,390.146C502.809,414.479,455.689,463.353,418.09,485.271C389.818,501.753,365.69,512.603,337.688,518.108C309.431,523.664,285.76,521.661,249.246,518.154C188.384,512.31,8.04,471.269,8.04,471.269" stroke="#71717a" stroke-width="2" fill="none" stroke-linecap="round" stroke-miterlimit="4"></path><path d="M90.679,4C90.679,4,94.736,57.956,103.553,80.808C111.744,102.037,123.282,122.151,139.84,137.374C157.71,153.804,183.775,165.929,209.045,173.968C236.018,182.549,267.351,185.264,297.487,185.496C328.934,185.739,362.898,181.594,393.97,174.433C424.502,167.396,456.88,155.788,482.412,143.259C503.994,132.669,516.797,122.924,538.693,106.906C572.714,82.019,663.468,4,663.468,4" stroke="#71717a" stroke-width="2" fill="none" stroke-linecap="round" stroke-miterlimit="4"></path><path d="M1596,334.01C1596,334.01,1574.148,350.245,1559.799,355.987C1541.907,363.148,1523.072,366.892,1495.477,370.083C1447.263,375.659,1354.882,377.097,1294.472,373.003C1244.378,369.608,1209.359,363.628,1157.789,352.363C1088.298,337.183,977.611,295.312,916.583,282.936C880.226,275.563,856.97,273.977,828.141,272.279C800.752,270.666,774.451,270.255,747.739,272.46C720.849,274.68,693.799,278.612,667.337,285.641C640.18,292.855,612.555,303.57,586.935,315.609C561.666,327.483,541.226,339.945,514.573,357.212C479.023,380.242,429.334,424.846,394.405,444.444C370.398,457.915,353.902,465.646,329.648,471.423C301.167,478.208,271.981,479.452,233.166,478.475C173.728,476.98,8.04,450.584,8.04,450.584" stroke="#71717a" stroke-width="2" fill="none" stroke-linecap="round" stroke-miterlimit="4"></path><path d="M4,757.642C4,757.642,112.625,729.651,160.804,721.966C201.199,715.523,237.318,710.983,273.367,711.507C306.794,711.994,332.542,715.589,369.849,723.311C423.519,734.42,506.692,768.451,562.814,780.151C604.959,788.936,640.062,792.972,675.377,794.248C706.58,795.376,730.562,794.251,763.819,789.615C808.058,783.447,874.897,761.689,916.583,754.699C944.993,749.936,955.804,747.587,988.945,746.886C1061.251,745.357,1227.43,766.77,1334.673,769.486C1427.817,771.845,1596,765.664,1596,765.664" stroke="#71717a" stroke-width="2" fill="none" stroke-linecap="round" stroke-miterlimit="4"></path><path d="M59.15,4C59.15,4,63.029,77.184,73.646,105.051C82.303,127.773,97.155,147.647,111.156,161.616C122.432,172.866,134.618,179.069,147.896,185.859C161.789,192.963,174.22,198.277,192.965,202.928C221.724,210.064,267.983,216.594,305.528,217.002C343.025,217.409,382.446,213.282,418.09,205.405C451.943,197.924,488.637,185.226,514.573,172.107C534.229,162.164,545.013,153.663,562.814,138.797C589.063,116.875,625.203,72.568,652.783,48.485C673.749,30.177,711.503,4,711.503,4" stroke="#71717a" stroke-width="2" fill="none" stroke-linecap="round" stroke-miterlimit="4"></path><path d="M1596,253.454C1596,253.454,1552.706,293.597,1532.648,307.071C1516.927,317.631,1504.757,324.435,1487.437,330.645C1466.579,338.125,1440.548,342.846,1415.075,345.914C1387.212,349.271,1358.346,350.005,1326.633,348.728C1289.493,347.232,1255.214,344.52,1206.03,335.126C1125.556,319.756,971.189,265.728,892.462,249.986C845.929,240.681,820.357,238.964,779.899,235.315C732.936,231.08,655.899,232.966,627.136,227.627C615.418,225.452,606.759,225.642,603.015,219.72C598.673,212.853,602.864,199.287,607.321,185.859C615.032,162.634,640.382,121.462,657.575,96.97C671.178,77.593,683.22,63.508,699.212,48.485C716.396,32.342,758.085,4,758.085,4" stroke="#71717a" stroke-width="2" fill="none" stroke-linecap="round" stroke-miterlimit="4"></path><path d="M29.218,4C29.218,4,30.234,64.681,33.931,88.889C36.767,107.455,39.57,122.698,46.191,137.374C52.566,151.502,61.605,164.402,72.362,175.628C83.559,187.313,97.448,197.04,112.563,205.725C129.237,215.305,148.588,223.076,168.844,229.544C191.151,236.666,209.616,241.596,241.206,245.555C299.154,252.816,452.944,248.356,490.452,253.426C501.585,254.93,507.931,255.311,511.805,258.586C514.256,260.657,515.681,263.107,515.264,266.667C514.266,275.181,498.34,292.727,485.315,307.071C467.273,326.939,436.186,353.925,413.68,371.717C395.493,386.096,379.251,397.748,361.809,407.494C345.855,416.408,332.863,423.307,313.568,428.764C287.345,436.18,255.47,440.561,217.085,441.961C160.79,444.015,8.04,428.773,8.04,428.773" stroke="#71717a" stroke-width="2" fill="none" stroke-linecap="round" stroke-miterlimit="4"></path><path d="M4,775.673C4,775.673,106.396,749.726,152.764,743.364C192.67,737.889,230.13,735.34,265.327,736.734C296.648,737.975,320.213,741.839,353.769,749.019C399.727,758.852,514.573,795.881,514.573,795.881" stroke="#71717a" stroke-width="2" fill="none" stroke-linecap="round" stroke-miterlimit="4"></path><path d="M921.803,796C921.803,796,1000.203,780.832,1053.266,778.143C1133.814,774.06,1263.375,787.098,1358.794,788.452C1442.847,789.644,1596,787.181,1596,787.181" stroke="#71717a" stroke-width="2" fill="none" stroke-linecap="round" stroke-miterlimit="4"></path><path d="M4,130.656C4,130.656,17.574,169.759,29.889,185.859C42.724,202.638,61.113,216.366,80.402,228.695C101.57,242.225,123.453,251.383,152.764,262.243C194.891,277.851,283.255,290.033,311.312,307.071C323.923,314.728,332.296,323.535,334.118,331.313C335.417,336.854,332.632,342.018,329.215,347.475C324.247,355.408,314.476,364.559,303.008,371.717C287.284,381.532,262.928,390.502,240.424,395.96C215.844,401.921,191.85,402.829,160.804,404.454C117.359,406.728,4,404.188,4,404.188" stroke="#71717a" stroke-width="2" fill="none" stroke-linecap="round" stroke-miterlimit="4"></path><path d="M4,794.952C4,794.952,82.591,773.932,120.603,767.814C156.194,762.086,191.737,758.371,225.126,758.33C255.835,758.291,282.551,760.742,313.568,766.131C349.076,772.301,426.131,795.602,426.131,795.602" stroke="#71717a" stroke-width="2" fill="none" stroke-linecap="round" stroke-miterlimit="4"></path><path d="M1596,210.203C1596,210.203,1485.936,282.686,1447.236,298.686C1424.824,307.952,1411.05,309.821,1390.955,312.908C1368.501,316.357,1345.326,317.899,1318.593,317.061C1285.158,316.012,1255.215,312.614,1206.03,303.486C1109.196,285.516,857.336,222.343,779.899,196.053C749.78,185.827,731.682,180.59,718.864,169.697C710.429,162.529,705.899,153.913,703.338,145.455C700.987,137.692,701.458,129.731,702.89,121.212C704.596,111.06,709.227,99.3,714.745,88.889C720.678,77.694,727.265,67.867,737.978,56.566C753.535,40.154,803.434,4,803.434,4" stroke="#71717a" stroke-width="2" fill="none" stroke-linecap="round" stroke-miterlimit="4"></path><path d="M4,219.89C4,219.89,97.339,285.995,119.224,307.071C129.412,316.882,138.634,323.921,139.045,331.313C139.367,337.093,133.355,343.367,128.643,347.39C123.808,351.518,119.123,352.897,110.203,355.556C89.599,361.696,4,372.958,4,372.958" stroke="#71717a" stroke-width="2" fill="none" stroke-linecap="round" stroke-miterlimit="4"></path><path d="M80.529,796C80.529,796,166.191,780.113,209.045,780.04C251.911,779.967,337.688,795.571,337.688,795.571" stroke="#71717a" stroke-width="2" fill="none" stroke-linecap="round" stroke-miterlimit="4"></path><path d="M1596,174.702C1596,174.702,1504.887,230.032,1463.317,247.539C1429.385,261.828,1400.015,271.627,1366.834,276.869C1333.051,282.207,1299.341,281.626,1262.312,278.779C1219.655,275.501,1177.946,266.674,1125.628,255.077C1053.359,239.057,932.201,208.497,870.14,185.859C832.788,172.233,800.33,161.296,783.189,145.455C772.524,135.599,766.875,124.26,764.947,113.131C763.134,102.67,765.899,91.631,770.517,80.808C776.232,67.415,788.268,52.763,800.347,40.404C813.488,26.957,847.355,4,847.355,4" stroke="#71717a" stroke-width="2" fill="none" stroke-linecap="round" stroke-miterlimit="4"></path><path d="M1596,141.06C1596,141.06,1518.015,189.147,1479.397,205.994C1444.351,221.283,1410.802,232.971,1374.874,240.007C1338.469,247.137,1301.034,249.141,1262.312,248.146C1220.811,247.08,1180.828,241.502,1133.668,232.173C1074.203,220.409,988.135,198.449,934.864,177.778C896.592,162.927,857.84,144.966,840.174,129.293C830.913,121.078,826.415,114.184,823.847,105.051C821.145,95.441,821.941,83.062,825.286,72.727C828.943,61.427,837.268,50.848,846.536,40.404C857.734,27.786,889.699,4,889.699,4" stroke="#71717a" stroke-width="2" fill="none" stroke-linecap="round" stroke-miterlimit="4"></path><path d="M1596,104.231C1596,104.231,1536.874,148.091,1503.518,165.098C1468.745,182.828,1429.039,198.084,1390.955,207.59C1353.965,216.822,1316.615,221.024,1278.392,222.106C1238.939,223.223,1200.555,220.321,1157.789,213.45C1107.705,205.404,1038.165,186.758,996.985,172.91C970.193,163.9,950.381,155.244,932.382,145.455C918.246,137.767,905.845,130.17,896.516,121.212C888.736,113.741,881.756,106.189,878.657,96.97C875.447,87.417,875.26,74.995,878.221,64.646C881.448,53.366,890.552,42.226,898.977,32.323C907.828,21.92,930.518,4,930.518,4" stroke="#71717a" stroke-width="2" fill="none" stroke-linecap="round" stroke-miterlimit="4"></path><path d="M1596,40.917C1596,40.917,1587.272,62.6,1580.128,72.727C1572.104,84.102,1563.457,93.79,1549.042,105.051C1525.717,123.27,1483.04,148.761,1447.236,163.525C1411.57,178.233,1373.175,187.848,1334.673,193.575C1295.488,199.404,1256.412,200.87,1214.07,197.731C1166.155,194.18,1107.439,183.993,1062.102,169.697C1022.705,157.274,977.608,136.688,955.962,121.212C944.386,112.935,937.919,106.435,933.018,96.97C928.148,87.563,925.194,75.197,926.548,64.646C927.963,53.628,935.26,42.215,942.277,32.323C949.67,21.903,970.363,4,970.363,4" stroke="#71717a" stroke-width="2" fill="none" stroke-linecap="round" stroke-miterlimit="4"></path><path d="M1554.246,4C1554.246,4,1556.909,22.742,1555.28,32.323C1553.477,42.927,1550.497,53.39,1542.617,64.646C1530.25,82.314,1503.993,105.524,1478.478,121.212C1449.337,139.13,1411.36,153.238,1374.874,162.573C1336.798,172.316,1295.738,177.13,1254.271,177.255C1210.143,177.388,1154.353,169.384,1117.588,161.454C1091.83,155.898,1072.819,149.176,1053.266,140.865C1035.655,133.379,1017.885,124.664,1005.025,114.884C994.6,106.955,985.31,98.105,980.1,88.889C975.748,81.192,973.213,73.255,973.528,64.646C973.896,54.592,979.026,42.213,984.881,32.323C991.052,21.9,1010.295,4,1010.295,4" stroke="#71717a" stroke-width="2" fill="none" stroke-linecap="round" stroke-miterlimit="4"></path><path d="M1510.971,4C1510.971,4,1514.318,23.365,1513.149,32.323C1512.036,40.841,1510.284,47.844,1504.671,56.566C1495.396,70.977,1474.682,91.562,1454.018,105.051C1430.044,120.7,1398.355,132.807,1366.834,141.206C1332.27,150.415,1291.814,155.295,1254.271,155.655C1216.772,156.015,1176.791,152.38,1141.709,143.395C1108.717,134.946,1068.819,118.623,1049.204,105.051C1037.905,97.232,1031.22,89.555,1026.476,80.808C1022.365,73.227,1020.276,64.612,1020.527,56.566C1020.781,48.449,1023.772,40.295,1028.109,32.323C1033.332,22.724,1051.648,4,1051.648,4" stroke="#71717a" stroke-width="2" fill="none" stroke-linecap="round" stroke-miterlimit="4"></path><path d="M1465.358,4C1465.358,4,1469.823,34.876,1464.061,48.485C1457.443,64.115,1440.181,78.954,1423.116,90.551C1403.229,104.064,1376.166,114.154,1349.537,121.212C1320.314,128.958,1286.181,132.986,1254.271,133.023C1222.059,133.061,1186.135,129.561,1157.162,121.212C1131.644,113.859,1102.116,99.274,1088.513,88.889C1081.314,83.393,1077.922,79.115,1074.713,72.727C1071.243,65.817,1067.71,57.444,1069.188,48.485C1071.328,35.502,1096.517,4,1096.517,4" stroke="#71717a" stroke-width="2" fill="none" stroke-linecap="round" stroke-miterlimit="4"></path><path d="M1412.153,4C1412.153,4,1419.972,29.289,1416.646,40.404C1413.069,52.357,1401.15,63.737,1389.182,72.727C1374.976,83.397,1355.081,91.476,1334.673,97.198C1310.908,103.861,1280.353,107.488,1254.271,107.279C1229.502,107.081,1202.795,103.799,1181.91,97.024C1164.3,91.312,1145.636,83.637,1135.981,72.727C1128.102,63.825,1122.258,51.129,1123.64,40.404C1125.212,28.205,1149.688,4,1149.688,4" stroke="#71717a" stroke-width="2" fill="none" stroke-linecap="round" stroke-miterlimit="4"></path><path d="M1326.633,4.291C1326.633,4.291,1345.33,16.638,1347.083,24.242C1348.748,31.463,1343.942,41.974,1338.383,48.485C1332.035,55.92,1320.269,60.885,1308.937,64.646C1295.521,69.1,1277.18,71.362,1262.312,71.174C1248.628,71,1233.876,69.146,1222.973,64.646C1213.857,60.884,1203.304,55.543,1200.261,48.485C1197.409,41.871,1199.142,31.124,1203.632,24.242C1209.267,15.606,1236.442,4,1236.442,4" stroke="#71717a" stroke-width="2" fill="none" stroke-linecap="round" stroke-miterlimit="4"></path></svg>