<?xml version="1.0" encoding="UTF-8"?>
<svg id="Layer_1" xmlns="http://www.w3.org/2000/svg" version="1.1" viewBox="0 0 612 792">
  <!-- Generator: Adobe Illustrator 29.5.1, SVG Export Plug-In . SVG Version: 2.1.0 Build 141)  -->
  <defs>
    <style>
      .st0 {
        fill: #231f20;
      }
    </style>
  </defs>
  <path class="st0" d="M116.6,246.8c3.3-8.3,7.2-16.7,13.3-23.4s5-5.2,7.9-7.3,2.8-2,4.3-2.5,1.5-.5,1.9-.5c.6,0,1.1,0,1.5.1s.3.3-.1-.1c.1.2.4.3.5.5s.4.5.5.7c.4.8.6,1.7.9,2.5.4,1.7.8,3.5,1.4,5.2,1.1,3.6,3.1,7.2,6.7,8.8,6,2.8,13.2.6,18.9-1.8s12.6-7.1,18.2-11.6,10.4-8.6,12.7-14.5,1.2-5.7-.6-8.1-5-3-7.9-2.7c-7.5.9-15.8,6.1-16,14.5s9.1,13.5,15.8,16.5,15.7,5.7,23.7,8.4,7.2,2.2,10.1,4.3.4.3.6.5.2.2.3.3c.3.3-.2-.3,0,0s.1.2.2.4c.2.3,0-.4,0,0s0-.5,0-.2-.1.3,0,0c0,0,0,.3,0,.3,0,0,.2-.6,0-.1s0,.2-.1.2c-.2.3.3-.3,0,0s-.4.4-.6.6-.2.1-.3.2c.4-.3-.2.1-.2.2-2.4,1.6-4.7,2.4-7.5,3.2-4.2,1.3-8.6,2.1-12.8,3-20.2,4.4-40.7,7.6-61.1,10.7s-19.9,2.9-29.8,4.5-4.1.6-6.1,1.1-4.1,2.2-2.4,4.4,3,1.2,4.5,1.3,3.4,0,5.1-.1c20.3-.8,40.5-2,60.8-3.5,21.1-1.6,42.1-3.7,63-6.1,5.1-.6,10.2-1.2,15.2-1.8s2.5-1,2.5-2.5-1.2-2.7-2.5-2.5c-20,2.5-40,4.6-60,6.4-20.1,1.8-40.1,3.2-60.2,4.2-5.3.3-10.7.5-16,.7s-3.8.2-5.6.2-1.7,0-2.6,0-.7,0-1,0c-.5,0,0,0,0,0-.1,0-.3,0-.5-.1l1.1.6h0c.2.6.5,1.1.7,1.7h0c-.2.5-.5,1.1-.7,1.7-.2.2-1,.4-.6.4s.5-.1.7-.2c.8-.2,1.6-.3,2.4-.5,1.5-.3,3.1-.5,4.6-.8,3.4-.5,6.8-1,10.2-1.5,7.6-1.2,15.2-2.3,22.9-3.5,15.2-2.3,30.3-4.8,45.4-7.7,7.5-1.5,15-2.9,22.3-4.8s8.4-2.4,11.7-5.1,2.7-2.9,2.6-4.9-2.3-4.5-4.4-5.7c-5.1-2.9-11-4.5-16.6-6.2s-11.3-3.7-16.8-6.1-5.5-2.6-7.9-4.4-3.9-3.2-4.7-5.5-.2-4,.9-5.8,3.5-3.7,5.8-4.6,2.5-.9,3.9-1.1.9-.1,1.4-.1.4,0,.5,0c.2,0,.3,0,.5,0-.3,0-.2,0,0,0,.2,0,.4.1.7.2.6.2-.4-.2.2,0s.3.2.5.3c-.4-.3-.1-.1,0,0s.2.2.3.3c-.4-.5,0,0,0,0,.2.6-.1-.5,0,0s.1.5.2.8c-.1-.6,0,.4,0,.6,0,.7.1-.5,0,.2s-.1.5-.2.7c-.3,1-.6,1.8-1.3,2.8-1.2,1.9-2.7,3.5-4.3,5-3.3,3.3-7,6.3-10.8,9.1s-8.6,5.8-13.3,7.6-4.4,1.5-6.6,1.9-3.9.3-5.5-.1c-4.9-1.2-5.7-7.2-6.7-11.3s-2-6-5-7-5.2-.2-7.5.8c-5,2.2-9.1,6.3-12.8,10.2s-8.2,10.7-11,16.8-2.7,6.1-4,9.2.5,2.7,1.7,3.1,2.6-.5,3.1-1.7h0Z"/>
</svg>